G04 #@! TF.FileFunction,Soldermask,Top*
%FSLAX46Y46*%
G04 Gerber Fmt 4.6, Leading zero omitted, Abs format (unit mm)*
G04 Created by KiCad (PCBNEW 4.0.2-1.fc23-product) date Mon 23 May 2016 18:37:12 BST*
%MOMM*%
G01*
G04 APERTURE LIST*
%ADD10C,0.100000*%
%ADD11R,2.235200X2.235200*%
%ADD12C,2.032000*%
%ADD13C,3.175000*%
%ADD14C,6.200000*%
%ADD15R,1.727200X1.727200*%
%ADD16O,1.727200X1.727200*%
%ADD17O,1.800860X3.500120*%
%ADD18R,2.000000X0.800000*%
%ADD19R,1.200000X1.200000*%
%ADD20R,2.029460X2.651760*%
%ADD21C,1.295400*%
%ADD22C,1.397000*%
%ADD23R,0.828040X0.629920*%
%ADD24R,0.750000X0.750000*%
%ADD25R,0.800100X0.800100*%
%ADD26R,1.399540X1.198880*%
%ADD27R,1.798320X1.597660*%
%ADD28R,1.597660X1.798320*%
%ADD29O,2.032000X2.540000*%
G04 APERTURE END LIST*
D10*
D11*
X104760000Y-102560000D03*
X102220000Y-102560000D03*
X99680000Y-102560000D03*
X97140000Y-102560000D03*
X94600000Y-102560000D03*
X92060000Y-102560000D03*
X89520000Y-102560000D03*
X86980000Y-102560000D03*
X84440000Y-102560000D03*
X81900000Y-102560000D03*
X104760000Y-100020000D03*
X102220000Y-100020000D03*
X99680000Y-100020000D03*
X97140000Y-100020000D03*
X94600000Y-100020000D03*
X92060000Y-100020000D03*
X89520000Y-100020000D03*
X86980000Y-100020000D03*
X84440000Y-100020000D03*
X81900000Y-100020000D03*
X104760000Y-97480000D03*
X102220000Y-97480000D03*
X99680000Y-97480000D03*
X97140000Y-97480000D03*
X94600000Y-97480000D03*
X92060000Y-97480000D03*
X89520000Y-97480000D03*
X86980000Y-97480000D03*
X84440000Y-97480000D03*
X81900000Y-97480000D03*
X104760000Y-94940000D03*
X102220000Y-94940000D03*
X99680000Y-94940000D03*
X97140000Y-94940000D03*
X94600000Y-94940000D03*
X92060000Y-94940000D03*
X89520000Y-94940000D03*
X86980000Y-94940000D03*
X84440000Y-94940000D03*
X81900000Y-94940000D03*
X104760000Y-92400000D03*
X102220000Y-92400000D03*
X99680000Y-92400000D03*
X97140000Y-92400000D03*
X94600000Y-92400000D03*
X92060000Y-92400000D03*
X89520000Y-92400000D03*
X86980000Y-92400000D03*
X84440000Y-92400000D03*
X81900000Y-92400000D03*
X104760000Y-89860000D03*
X102220000Y-89860000D03*
X99680000Y-89860000D03*
X97140000Y-89860000D03*
X94600000Y-89860000D03*
X92060000Y-89860000D03*
X89520000Y-89860000D03*
X86980000Y-89860000D03*
X84440000Y-89860000D03*
X81900000Y-89860000D03*
X104760000Y-87320000D03*
X102220000Y-87320000D03*
X99680000Y-87320000D03*
X97140000Y-87320000D03*
X94600000Y-87320000D03*
X92060000Y-87320000D03*
X89520000Y-87320000D03*
X86980000Y-87320000D03*
X84440000Y-87320000D03*
X81900000Y-87320000D03*
X104760000Y-84780000D03*
X102220000Y-84780000D03*
X99680000Y-84780000D03*
X97140000Y-84780000D03*
X94600000Y-84780000D03*
X92060000Y-84780000D03*
X89520000Y-84780000D03*
X86980000Y-84780000D03*
X84440000Y-84780000D03*
X81900000Y-84780000D03*
X104760000Y-82240000D03*
X102220000Y-82240000D03*
X99680000Y-82240000D03*
X97140000Y-82240000D03*
X94600000Y-82240000D03*
X92060000Y-82240000D03*
X89520000Y-82240000D03*
X86980000Y-82240000D03*
X84440000Y-82240000D03*
X81900000Y-82240000D03*
X104760000Y-79700000D03*
X102220000Y-79700000D03*
X99680000Y-79700000D03*
X97140000Y-79700000D03*
X94600000Y-79700000D03*
X92060000Y-79700000D03*
X89520000Y-79700000D03*
X86980000Y-79700000D03*
X84440000Y-79700000D03*
D12*
X82000000Y-76750000D03*
X84540000Y-76750000D03*
X87080000Y-76750000D03*
X89620000Y-76750000D03*
X92160000Y-76750000D03*
X94700000Y-76750000D03*
X97240000Y-76750000D03*
X99780000Y-76750000D03*
X102320000Y-76750000D03*
X104860000Y-76750000D03*
X79000000Y-102500000D03*
X79000000Y-99960000D03*
X79000000Y-97420000D03*
X79000000Y-94880000D03*
X79000000Y-92340000D03*
X79000000Y-89800000D03*
X79000000Y-87260000D03*
X79000000Y-84720000D03*
X79000000Y-82180000D03*
X79000000Y-79640000D03*
D13*
X77470000Y-127000000D03*
X105410000Y-127000000D03*
X120650000Y-76200000D03*
D14*
X71570000Y-76100000D03*
X120570000Y-134100000D03*
D15*
X72840000Y-129230000D03*
D16*
X70300000Y-129230000D03*
X72840000Y-126690000D03*
X70300000Y-126690000D03*
X72840000Y-124150000D03*
X70300000Y-124150000D03*
X72840000Y-121610000D03*
X70300000Y-121610000D03*
X72840000Y-119070000D03*
X70300000Y-119070000D03*
X72840000Y-116530000D03*
X70300000Y-116530000D03*
X72840000Y-113990000D03*
X70300000Y-113990000D03*
X72840000Y-111450000D03*
X70300000Y-111450000D03*
X72840000Y-108910000D03*
X70300000Y-108910000D03*
X72840000Y-106370000D03*
X70300000Y-106370000D03*
X72840000Y-103830000D03*
X70300000Y-103830000D03*
X72840000Y-101290000D03*
X70300000Y-101290000D03*
X72840000Y-98750000D03*
X70300000Y-98750000D03*
X72840000Y-96210000D03*
X70300000Y-96210000D03*
X72840000Y-93670000D03*
X70300000Y-93670000D03*
X72840000Y-91130000D03*
X70300000Y-91130000D03*
X72840000Y-88590000D03*
X70300000Y-88590000D03*
X72840000Y-86050000D03*
X70300000Y-86050000D03*
X72840000Y-83510000D03*
X70300000Y-83510000D03*
X72840000Y-80970000D03*
X70300000Y-80970000D03*
D17*
X104770000Y-133500000D03*
X102230000Y-133500000D03*
D18*
X111150000Y-116020000D03*
X111150000Y-117290000D03*
X111150000Y-118560000D03*
X111150000Y-119830000D03*
X111150000Y-121100000D03*
X111150000Y-122370000D03*
X111150000Y-123640000D03*
X111150000Y-124910000D03*
X111150000Y-126180000D03*
X111150000Y-127450000D03*
X111150000Y-128720000D03*
X121350000Y-128720000D03*
X121350000Y-127450000D03*
X121350000Y-126180000D03*
X121350000Y-124910000D03*
X121350000Y-123640000D03*
X121350000Y-122370000D03*
X121350000Y-121100000D03*
X121350000Y-119830000D03*
X121350000Y-118560000D03*
X121350000Y-117290000D03*
X121350000Y-116020000D03*
D19*
X114250000Y-120370000D03*
X114250000Y-122170000D03*
X114250000Y-123970000D03*
X116050000Y-120370000D03*
X116050000Y-122170000D03*
X116050000Y-123970000D03*
X117850000Y-120370000D03*
X117850000Y-122170000D03*
X117850000Y-123970000D03*
D14*
X71570000Y-134100000D03*
D20*
X102000000Y-124585340D03*
X102000000Y-120414660D03*
D21*
X109700000Y-134870000D03*
X112240000Y-134870000D03*
X112240000Y-132330000D03*
X109700000Y-132330000D03*
D22*
X110970000Y-133600000D03*
D23*
X100400000Y-129648080D03*
X100400000Y-127351920D03*
X107250000Y-133398080D03*
X107250000Y-131101920D03*
D17*
X98810000Y-133500000D03*
X96270000Y-133500000D03*
X93730000Y-133500000D03*
X91190000Y-133500000D03*
D24*
X111250000Y-111650000D03*
X111250000Y-112650000D03*
X110250000Y-112650000D03*
X110250000Y-111650000D03*
D25*
X87450000Y-124249240D03*
X85550000Y-124249240D03*
X86500000Y-126248220D03*
D12*
X104750000Y-105500000D03*
X102210000Y-105500000D03*
X99670000Y-105500000D03*
X97130000Y-105500000D03*
X94590000Y-105500000D03*
X92050000Y-105500000D03*
X89510000Y-105500000D03*
X86970000Y-105500000D03*
X84430000Y-105500000D03*
X81890000Y-105500000D03*
D11*
X81900000Y-79700000D03*
D26*
X86000000Y-132001400D03*
X86000000Y-134998600D03*
X88000000Y-132001400D03*
X88000000Y-134998600D03*
X84000000Y-132001400D03*
X84000000Y-134998600D03*
X82000000Y-132001400D03*
X82000000Y-134998600D03*
X80000000Y-132001400D03*
X80000000Y-134998600D03*
X78000000Y-132001400D03*
X78000000Y-134998600D03*
D27*
X116050000Y-112139540D03*
X116050000Y-109340460D03*
X113510000Y-112139540D03*
X113510000Y-109340460D03*
X80600000Y-126899540D03*
X80600000Y-124100460D03*
X118590000Y-112139540D03*
X118590000Y-109340460D03*
D28*
X87899540Y-122250000D03*
X85100460Y-122250000D03*
D29*
X95400000Y-128400000D03*
X97940000Y-128400000D03*
X92860000Y-128400000D03*
M02*
