G04 #@! TF.FileFunction,Drawing*
%FSLAX46Y46*%
G04 Gerber Fmt 4.6, Leading zero omitted, Abs format (unit mm)*
G04 Created by KiCad (PCBNEW 4.0.2-1.fc23-product) date Mon 23 May 2016 18:37:12 BST*
%MOMM*%
G01*
G04 APERTURE LIST*
%ADD10C,0.100000*%
%ADD11C,0.050800*%
G04 APERTURE END LIST*
D10*
D11*
X115067020Y-113211420D02*
X115067020Y-108268580D01*
X117032980Y-108268580D02*
X117032980Y-113211420D01*
X117032980Y-113211420D02*
X115067020Y-113211420D01*
X115067020Y-108268580D02*
X117032980Y-108268580D01*
X112527020Y-113211420D02*
X112527020Y-108268580D01*
X114492980Y-108268580D02*
X114492980Y-113211420D01*
X114492980Y-113211420D02*
X112527020Y-113211420D01*
X112527020Y-108268580D02*
X114492980Y-108268580D01*
X79617020Y-127971420D02*
X79617020Y-123028580D01*
X81582980Y-123028580D02*
X81582980Y-127971420D01*
X81582980Y-127971420D02*
X79617020Y-127971420D01*
X79617020Y-123028580D02*
X81582980Y-123028580D01*
X117607020Y-113211420D02*
X117607020Y-108268580D01*
X119572980Y-108268580D02*
X119572980Y-113211420D01*
X119572980Y-113211420D02*
X117607020Y-113211420D01*
X117607020Y-108268580D02*
X119572980Y-108268580D01*
X88971420Y-123232980D02*
X84028580Y-123232980D01*
X84028580Y-121267020D02*
X88971420Y-121267020D01*
X88971420Y-121267020D02*
X88971420Y-123232980D01*
X84028580Y-123232980D02*
X84028580Y-121267020D01*
M02*
