G04 #@! TF.FileFunction,Other,ECO1*
%FSLAX46Y46*%
G04 Gerber Fmt 4.6, Leading zero omitted, Abs format (unit mm)*
G04 Created by KiCad (PCBNEW 4.0.2-1.fc23-product) date Mon 23 May 2016 18:37:12 BST*
%MOMM*%
G01*
G04 APERTURE LIST*
%ADD10C,0.100000*%
%ADD11C,0.030480*%
G04 APERTURE END LIST*
D10*
X100671429Y-128742857D02*
X100071429Y-128742857D01*
X100071429Y-128600000D01*
X100100000Y-128514285D01*
X100157143Y-128457143D01*
X100214286Y-128428571D01*
X100328571Y-128400000D01*
X100414286Y-128400000D01*
X100528571Y-128428571D01*
X100585714Y-128457143D01*
X100642857Y-128514285D01*
X100671429Y-128600000D01*
X100671429Y-128742857D01*
X100128571Y-128171428D02*
X100100000Y-128142857D01*
X100071429Y-128085714D01*
X100071429Y-127942857D01*
X100100000Y-127885714D01*
X100128571Y-127857143D01*
X100185714Y-127828571D01*
X100242857Y-127828571D01*
X100328571Y-127857143D01*
X100671429Y-128200000D01*
X100671429Y-127828571D01*
X107521429Y-132492857D02*
X106921429Y-132492857D01*
X106921429Y-132350000D01*
X106950000Y-132264285D01*
X107007143Y-132207143D01*
X107064286Y-132178571D01*
X107178571Y-132150000D01*
X107264286Y-132150000D01*
X107378571Y-132178571D01*
X107435714Y-132207143D01*
X107492857Y-132264285D01*
X107521429Y-132350000D01*
X107521429Y-132492857D01*
X107521429Y-131578571D02*
X107521429Y-131921428D01*
X107521429Y-131750000D02*
X106921429Y-131750000D01*
X107007143Y-131807143D01*
X107064286Y-131864285D01*
X107092857Y-131921428D01*
D11*
X87090476Y-133723809D02*
X87090476Y-133819047D01*
X86890476Y-133819047D01*
X86985714Y-133657142D02*
X86985714Y-133590475D01*
X87090476Y-133561904D02*
X87090476Y-133657142D01*
X86890476Y-133657142D01*
X86890476Y-133561904D01*
X87090476Y-133476190D02*
X86890476Y-133476190D01*
X86890476Y-133428571D01*
X86900000Y-133399999D01*
X86919048Y-133380952D01*
X86938095Y-133371428D01*
X86976190Y-133361904D01*
X87004762Y-133361904D01*
X87042857Y-133371428D01*
X87061905Y-133380952D01*
X87080952Y-133399999D01*
X87090476Y-133428571D01*
X87090476Y-133476190D01*
X86890476Y-133190476D02*
X86890476Y-133228571D01*
X86900000Y-133247619D01*
X86909524Y-133257142D01*
X86938095Y-133276190D01*
X86976190Y-133285714D01*
X87052381Y-133285714D01*
X87071429Y-133276190D01*
X87080952Y-133266666D01*
X87090476Y-133247619D01*
X87090476Y-133209523D01*
X87080952Y-133190476D01*
X87071429Y-133180952D01*
X87052381Y-133171428D01*
X87004762Y-133171428D01*
X86985714Y-133180952D01*
X86976190Y-133190476D01*
X86966667Y-133209523D01*
X86966667Y-133247619D01*
X86976190Y-133266666D01*
X86985714Y-133276190D01*
X87004762Y-133285714D01*
X85140476Y-133628571D02*
X85140476Y-133723809D01*
X84940476Y-133723809D01*
X85035714Y-133561904D02*
X85035714Y-133495237D01*
X85140476Y-133466666D02*
X85140476Y-133561904D01*
X84940476Y-133561904D01*
X84940476Y-133466666D01*
X85140476Y-133380952D02*
X84940476Y-133380952D01*
X84940476Y-133333333D01*
X84950000Y-133304761D01*
X84969048Y-133285714D01*
X84988095Y-133276190D01*
X85026190Y-133266666D01*
X85054762Y-133266666D01*
X85092857Y-133276190D01*
X85111905Y-133285714D01*
X85130952Y-133304761D01*
X85140476Y-133333333D01*
X85140476Y-133380952D01*
X89090476Y-133723809D02*
X89090476Y-133819047D01*
X88890476Y-133819047D01*
X88985714Y-133657142D02*
X88985714Y-133590475D01*
X89090476Y-133561904D02*
X89090476Y-133657142D01*
X88890476Y-133657142D01*
X88890476Y-133561904D01*
X89090476Y-133476190D02*
X88890476Y-133476190D01*
X88890476Y-133428571D01*
X88900000Y-133399999D01*
X88919048Y-133380952D01*
X88938095Y-133371428D01*
X88976190Y-133361904D01*
X89004762Y-133361904D01*
X89042857Y-133371428D01*
X89061905Y-133380952D01*
X89080952Y-133399999D01*
X89090476Y-133428571D01*
X89090476Y-133476190D01*
X88890476Y-133180952D02*
X88890476Y-133276190D01*
X88985714Y-133285714D01*
X88976190Y-133276190D01*
X88966667Y-133257142D01*
X88966667Y-133209523D01*
X88976190Y-133190476D01*
X88985714Y-133180952D01*
X89004762Y-133171428D01*
X89052381Y-133171428D01*
X89071429Y-133180952D01*
X89080952Y-133190476D01*
X89090476Y-133209523D01*
X89090476Y-133257142D01*
X89080952Y-133276190D01*
X89071429Y-133285714D01*
X87140476Y-133628571D02*
X87140476Y-133723809D01*
X86940476Y-133723809D01*
X87035714Y-133561904D02*
X87035714Y-133495237D01*
X87140476Y-133466666D02*
X87140476Y-133561904D01*
X86940476Y-133561904D01*
X86940476Y-133466666D01*
X87140476Y-133380952D02*
X86940476Y-133380952D01*
X86940476Y-133333333D01*
X86950000Y-133304761D01*
X86969048Y-133285714D01*
X86988095Y-133276190D01*
X87026190Y-133266666D01*
X87054762Y-133266666D01*
X87092857Y-133276190D01*
X87111905Y-133285714D01*
X87130952Y-133304761D01*
X87140476Y-133333333D01*
X87140476Y-133380952D01*
X85090476Y-133723809D02*
X85090476Y-133819047D01*
X84890476Y-133819047D01*
X84985714Y-133657142D02*
X84985714Y-133590475D01*
X85090476Y-133561904D02*
X85090476Y-133657142D01*
X84890476Y-133657142D01*
X84890476Y-133561904D01*
X85090476Y-133476190D02*
X84890476Y-133476190D01*
X84890476Y-133428571D01*
X84900000Y-133399999D01*
X84919048Y-133380952D01*
X84938095Y-133371428D01*
X84976190Y-133361904D01*
X85004762Y-133361904D01*
X85042857Y-133371428D01*
X85061905Y-133380952D01*
X85080952Y-133399999D01*
X85090476Y-133428571D01*
X85090476Y-133476190D01*
X84957143Y-133190476D02*
X85090476Y-133190476D01*
X84880952Y-133238095D02*
X85023810Y-133285714D01*
X85023810Y-133161904D01*
X83140476Y-133628571D02*
X83140476Y-133723809D01*
X82940476Y-133723809D01*
X83035714Y-133561904D02*
X83035714Y-133495237D01*
X83140476Y-133466666D02*
X83140476Y-133561904D01*
X82940476Y-133561904D01*
X82940476Y-133466666D01*
X83140476Y-133380952D02*
X82940476Y-133380952D01*
X82940476Y-133333333D01*
X82950000Y-133304761D01*
X82969048Y-133285714D01*
X82988095Y-133276190D01*
X83026190Y-133266666D01*
X83054762Y-133266666D01*
X83092857Y-133276190D01*
X83111905Y-133285714D01*
X83130952Y-133304761D01*
X83140476Y-133333333D01*
X83140476Y-133380952D01*
X83090476Y-133723809D02*
X83090476Y-133819047D01*
X82890476Y-133819047D01*
X82985714Y-133657142D02*
X82985714Y-133590475D01*
X83090476Y-133561904D02*
X83090476Y-133657142D01*
X82890476Y-133657142D01*
X82890476Y-133561904D01*
X83090476Y-133476190D02*
X82890476Y-133476190D01*
X82890476Y-133428571D01*
X82900000Y-133399999D01*
X82919048Y-133380952D01*
X82938095Y-133371428D01*
X82976190Y-133361904D01*
X83004762Y-133361904D01*
X83042857Y-133371428D01*
X83061905Y-133380952D01*
X83080952Y-133399999D01*
X83090476Y-133428571D01*
X83090476Y-133476190D01*
X82890476Y-133295238D02*
X82890476Y-133171428D01*
X82966667Y-133238095D01*
X82966667Y-133209523D01*
X82976190Y-133190476D01*
X82985714Y-133180952D01*
X83004762Y-133171428D01*
X83052381Y-133171428D01*
X83071429Y-133180952D01*
X83080952Y-133190476D01*
X83090476Y-133209523D01*
X83090476Y-133266666D01*
X83080952Y-133285714D01*
X83071429Y-133295238D01*
X81140476Y-133628571D02*
X81140476Y-133723809D01*
X80940476Y-133723809D01*
X81035714Y-133561904D02*
X81035714Y-133495237D01*
X81140476Y-133466666D02*
X81140476Y-133561904D01*
X80940476Y-133561904D01*
X80940476Y-133466666D01*
X81140476Y-133380952D02*
X80940476Y-133380952D01*
X80940476Y-133333333D01*
X80950000Y-133304761D01*
X80969048Y-133285714D01*
X80988095Y-133276190D01*
X81026190Y-133266666D01*
X81054762Y-133266666D01*
X81092857Y-133276190D01*
X81111905Y-133285714D01*
X81130952Y-133304761D01*
X81140476Y-133333333D01*
X81140476Y-133380952D01*
X81090476Y-133723809D02*
X81090476Y-133819047D01*
X80890476Y-133819047D01*
X80985714Y-133657142D02*
X80985714Y-133590475D01*
X81090476Y-133561904D02*
X81090476Y-133657142D01*
X80890476Y-133657142D01*
X80890476Y-133561904D01*
X81090476Y-133476190D02*
X80890476Y-133476190D01*
X80890476Y-133428571D01*
X80900000Y-133399999D01*
X80919048Y-133380952D01*
X80938095Y-133371428D01*
X80976190Y-133361904D01*
X81004762Y-133361904D01*
X81042857Y-133371428D01*
X81061905Y-133380952D01*
X81080952Y-133399999D01*
X81090476Y-133428571D01*
X81090476Y-133476190D01*
X80909524Y-133285714D02*
X80900000Y-133276190D01*
X80890476Y-133257142D01*
X80890476Y-133209523D01*
X80900000Y-133190476D01*
X80909524Y-133180952D01*
X80928571Y-133171428D01*
X80947619Y-133171428D01*
X80976190Y-133180952D01*
X81090476Y-133295238D01*
X81090476Y-133171428D01*
X79140476Y-133628571D02*
X79140476Y-133723809D01*
X78940476Y-133723809D01*
X79035714Y-133561904D02*
X79035714Y-133495237D01*
X79140476Y-133466666D02*
X79140476Y-133561904D01*
X78940476Y-133561904D01*
X78940476Y-133466666D01*
X79140476Y-133380952D02*
X78940476Y-133380952D01*
X78940476Y-133333333D01*
X78950000Y-133304761D01*
X78969048Y-133285714D01*
X78988095Y-133276190D01*
X79026190Y-133266666D01*
X79054762Y-133266666D01*
X79092857Y-133276190D01*
X79111905Y-133285714D01*
X79130952Y-133304761D01*
X79140476Y-133333333D01*
X79140476Y-133380952D01*
X79090476Y-133723809D02*
X79090476Y-133819047D01*
X78890476Y-133819047D01*
X78985714Y-133657142D02*
X78985714Y-133590475D01*
X79090476Y-133561904D02*
X79090476Y-133657142D01*
X78890476Y-133657142D01*
X78890476Y-133561904D01*
X79090476Y-133476190D02*
X78890476Y-133476190D01*
X78890476Y-133428571D01*
X78900000Y-133399999D01*
X78919048Y-133380952D01*
X78938095Y-133371428D01*
X78976190Y-133361904D01*
X79004762Y-133361904D01*
X79042857Y-133371428D01*
X79061905Y-133380952D01*
X79080952Y-133399999D01*
X79090476Y-133428571D01*
X79090476Y-133476190D01*
X79090476Y-133171428D02*
X79090476Y-133285714D01*
X79090476Y-133228571D02*
X78890476Y-133228571D01*
X78919048Y-133247619D01*
X78938095Y-133266666D01*
X78947619Y-133285714D01*
X77140476Y-133628571D02*
X77140476Y-133723809D01*
X76940476Y-133723809D01*
X77035714Y-133561904D02*
X77035714Y-133495237D01*
X77140476Y-133466666D02*
X77140476Y-133561904D01*
X76940476Y-133561904D01*
X76940476Y-133466666D01*
X77140476Y-133380952D02*
X76940476Y-133380952D01*
X76940476Y-133333333D01*
X76950000Y-133304761D01*
X76969048Y-133285714D01*
X76988095Y-133276190D01*
X77026190Y-133266666D01*
X77054762Y-133266666D01*
X77092857Y-133276190D01*
X77111905Y-133285714D01*
X77130952Y-133304761D01*
X77140476Y-133333333D01*
X77140476Y-133380952D01*
D10*
X116321429Y-110840000D02*
X116035714Y-111040000D01*
X116321429Y-111182857D02*
X115721429Y-111182857D01*
X115721429Y-110954285D01*
X115750000Y-110897143D01*
X115778571Y-110868571D01*
X115835714Y-110840000D01*
X115921429Y-110840000D01*
X115978571Y-110868571D01*
X116007143Y-110897143D01*
X116035714Y-110954285D01*
X116035714Y-111182857D01*
X115921429Y-110325714D02*
X116321429Y-110325714D01*
X115692857Y-110468571D02*
X116121429Y-110611428D01*
X116121429Y-110240000D01*
X113781429Y-110840000D02*
X113495714Y-111040000D01*
X113781429Y-111182857D02*
X113181429Y-111182857D01*
X113181429Y-110954285D01*
X113210000Y-110897143D01*
X113238571Y-110868571D01*
X113295714Y-110840000D01*
X113381429Y-110840000D01*
X113438571Y-110868571D01*
X113467143Y-110897143D01*
X113495714Y-110954285D01*
X113495714Y-111182857D01*
X113181429Y-110640000D02*
X113181429Y-110268571D01*
X113410000Y-110468571D01*
X113410000Y-110382857D01*
X113438571Y-110325714D01*
X113467143Y-110297143D01*
X113524286Y-110268571D01*
X113667143Y-110268571D01*
X113724286Y-110297143D01*
X113752857Y-110325714D01*
X113781429Y-110382857D01*
X113781429Y-110554285D01*
X113752857Y-110611428D01*
X113724286Y-110640000D01*
X80871429Y-125600000D02*
X80585714Y-125800000D01*
X80871429Y-125942857D02*
X80271429Y-125942857D01*
X80271429Y-125714285D01*
X80300000Y-125657143D01*
X80328571Y-125628571D01*
X80385714Y-125600000D01*
X80471429Y-125600000D01*
X80528571Y-125628571D01*
X80557143Y-125657143D01*
X80585714Y-125714285D01*
X80585714Y-125942857D01*
X80328571Y-125371428D02*
X80300000Y-125342857D01*
X80271429Y-125285714D01*
X80271429Y-125142857D01*
X80300000Y-125085714D01*
X80328571Y-125057143D01*
X80385714Y-125028571D01*
X80442857Y-125028571D01*
X80528571Y-125057143D01*
X80871429Y-125400000D01*
X80871429Y-125028571D01*
X118861429Y-110840000D02*
X118575714Y-111040000D01*
X118861429Y-111182857D02*
X118261429Y-111182857D01*
X118261429Y-110954285D01*
X118290000Y-110897143D01*
X118318571Y-110868571D01*
X118375714Y-110840000D01*
X118461429Y-110840000D01*
X118518571Y-110868571D01*
X118547143Y-110897143D01*
X118575714Y-110954285D01*
X118575714Y-111182857D01*
X118861429Y-110268571D02*
X118861429Y-110611428D01*
X118861429Y-110440000D02*
X118261429Y-110440000D01*
X118347143Y-110497143D01*
X118404286Y-110554285D01*
X118432857Y-110611428D01*
X86400000Y-122521429D02*
X86200000Y-122235714D01*
X86057143Y-122521429D02*
X86057143Y-121921429D01*
X86285715Y-121921429D01*
X86342857Y-121950000D01*
X86371429Y-121978571D01*
X86400000Y-122035714D01*
X86400000Y-122121429D01*
X86371429Y-122178571D01*
X86342857Y-122207143D01*
X86285715Y-122235714D01*
X86057143Y-122235714D01*
X86942857Y-121921429D02*
X86657143Y-121921429D01*
X86628572Y-122207143D01*
X86657143Y-122178571D01*
X86714286Y-122150000D01*
X86857143Y-122150000D01*
X86914286Y-122178571D01*
X86942857Y-122207143D01*
X86971429Y-122264286D01*
X86971429Y-122407143D01*
X86942857Y-122464286D01*
X86914286Y-122492857D01*
X86857143Y-122521429D01*
X86714286Y-122521429D01*
X86657143Y-122492857D01*
X86628572Y-122464286D01*
M02*
