G04 #@! TF.FileFunction,Legend,Top*
%FSLAX46Y46*%
G04 Gerber Fmt 4.6, Leading zero omitted, Abs format (unit mm)*
G04 Created by KiCad (PCBNEW 4.0.2-1.fc23-product) date Sun 22 May 2016 02:59:59 BST*
%MOMM*%
G01*
G04 APERTURE LIST*
%ADD10C,0.100000*%
%ADD11C,0.200000*%
%ADD12C,0.300000*%
%ADD13C,0.250000*%
%ADD14C,0.150000*%
%ADD15C,0.198120*%
%ADD16C,0.203200*%
%ADD17C,0.400000*%
%ADD18C,0.002540*%
%ADD19C,0.125000*%
G04 APERTURE END LIST*
D10*
D11*
X83787817Y-129505076D02*
X83686802Y-129538747D01*
X83585787Y-129639763D01*
X83518443Y-129774450D01*
X83518443Y-129909137D01*
X83552115Y-130010152D01*
X83653130Y-130178511D01*
X83754146Y-130279527D01*
X83922504Y-130380542D01*
X84023519Y-130414214D01*
X84158206Y-130414214D01*
X84292894Y-130346869D01*
X84360237Y-130279526D01*
X84427581Y-130144839D01*
X84427581Y-130077496D01*
X84191879Y-129841794D01*
X84057192Y-129976481D01*
X84797970Y-129841794D02*
X84090863Y-129134687D01*
X84360237Y-128865312D01*
X84461253Y-128831641D01*
X84528596Y-128831641D01*
X84629611Y-128865312D01*
X84730626Y-128966328D01*
X84764298Y-129067343D01*
X84764298Y-129134686D01*
X84730626Y-129235701D01*
X84461252Y-129505076D01*
X85437733Y-129134687D02*
X85572420Y-129067343D01*
X85740779Y-128898984D01*
X85774451Y-128797969D01*
X85774451Y-128730626D01*
X85740779Y-128629610D01*
X85673436Y-128562267D01*
X85572421Y-128528595D01*
X85505077Y-128528595D01*
X85404061Y-128562266D01*
X85235702Y-128663282D01*
X85134687Y-128696954D01*
X85067343Y-128696954D01*
X84966328Y-128663282D01*
X84898985Y-128595939D01*
X84865313Y-128494924D01*
X84865313Y-128427580D01*
X84898985Y-128326565D01*
X85067344Y-128158206D01*
X85202031Y-128090862D01*
X86178512Y-128461252D02*
X85471405Y-127754145D01*
X85639763Y-127585786D01*
X85774451Y-127518442D01*
X85909138Y-127518442D01*
X86010153Y-127552114D01*
X86178512Y-127653129D01*
X86279527Y-127754145D01*
X86380543Y-127922504D01*
X86414214Y-128023519D01*
X86414214Y-128158206D01*
X86346870Y-128292893D01*
X86178512Y-128461252D01*
X79929187Y-130710576D02*
X79222080Y-130003470D01*
X79491454Y-130272843D02*
X79525126Y-130171828D01*
X79659813Y-130037141D01*
X79760828Y-130003469D01*
X79828172Y-130003469D01*
X79929187Y-130037141D01*
X80131218Y-130239172D01*
X80164890Y-130340187D01*
X80164890Y-130407530D01*
X80131218Y-130508545D01*
X79996530Y-130643233D01*
X79895515Y-130676905D01*
X80804653Y-129767767D02*
X80770981Y-129868782D01*
X80636294Y-130003470D01*
X80535279Y-130037141D01*
X80434263Y-130003470D01*
X80164889Y-129734095D01*
X80131217Y-129633080D01*
X80164889Y-129532065D01*
X80299576Y-129397377D01*
X80400592Y-129363706D01*
X80501607Y-129397377D01*
X80568951Y-129464721D01*
X80299576Y-129868783D01*
X81175042Y-129464721D02*
X80467935Y-128757615D01*
X81478088Y-129161675D02*
X81107698Y-128791286D01*
X81006683Y-128757614D01*
X80905668Y-128791286D01*
X80804652Y-128892302D01*
X80770981Y-128993317D01*
X80770981Y-129060660D01*
X82117851Y-128521912D02*
X81747462Y-128151522D01*
X81646447Y-128117851D01*
X81545431Y-128151522D01*
X81410744Y-128286210D01*
X81377072Y-128387225D01*
X82084180Y-128488240D02*
X82050508Y-128589255D01*
X81882149Y-128757615D01*
X81781133Y-128791286D01*
X81680118Y-128757615D01*
X81612775Y-128690271D01*
X81579103Y-128589256D01*
X81612775Y-128488241D01*
X81781134Y-128319882D01*
X81814806Y-128218867D01*
X81915820Y-127781133D02*
X82555584Y-128084180D01*
X82252538Y-127444416D01*
X82993317Y-127646447D02*
X82521912Y-127175042D01*
X82286210Y-126939340D02*
X82286210Y-127006683D01*
X82353553Y-127006683D01*
X82353553Y-126939340D01*
X82286210Y-126939340D01*
X82353553Y-127006683D01*
X83431049Y-127208714D02*
X83330034Y-127242386D01*
X83262690Y-127242386D01*
X83161675Y-127208714D01*
X82959644Y-127006683D01*
X82925973Y-126905668D01*
X82925973Y-126838325D01*
X82959644Y-126737310D01*
X83060660Y-126636294D01*
X83161675Y-126602622D01*
X83229019Y-126602622D01*
X83330034Y-126636294D01*
X83532065Y-126838325D01*
X83565737Y-126939340D01*
X83565737Y-127006683D01*
X83532065Y-127107698D01*
X83431049Y-127208714D01*
X83801439Y-125895515D02*
X84272843Y-126366920D01*
X83498393Y-126198561D02*
X83868782Y-126568951D01*
X83969797Y-126602623D01*
X84070812Y-126568951D01*
X84171828Y-126467935D01*
X84205500Y-126366920D01*
X84205500Y-126299576D01*
X84609561Y-126030203D02*
X84138156Y-125558798D01*
X84272843Y-125693485D02*
X84239171Y-125592470D01*
X84239171Y-125525126D01*
X84272843Y-125424111D01*
X84340187Y-125356767D01*
X82006683Y-130383080D02*
X81299576Y-129675973D01*
X81568950Y-129945347D02*
X81602622Y-129844332D01*
X81737310Y-129709644D01*
X81838325Y-129675973D01*
X81905668Y-129675973D01*
X82006683Y-129709644D01*
X82208714Y-129911675D01*
X82242386Y-130012690D01*
X82242386Y-130080034D01*
X82208714Y-130181049D01*
X82074027Y-130315737D01*
X81973012Y-130349408D01*
X82747462Y-129642302D02*
X82646447Y-129675973D01*
X82579103Y-129675973D01*
X82478088Y-129642302D01*
X82276057Y-129440271D01*
X82242385Y-129339255D01*
X82242385Y-129271912D01*
X82276057Y-129170897D01*
X82377073Y-129069881D01*
X82478088Y-129036209D01*
X82545431Y-129036209D01*
X82646447Y-129069881D01*
X82848478Y-129271912D01*
X82882149Y-129372927D01*
X82882149Y-129440271D01*
X82848478Y-129541286D01*
X82747462Y-129642302D01*
X83589256Y-128800507D02*
X83218867Y-128430118D01*
X83117851Y-128396446D01*
X83016836Y-128430118D01*
X82882149Y-128564805D01*
X82848477Y-128665820D01*
X83555584Y-128766836D02*
X83521913Y-128867851D01*
X83353553Y-129036210D01*
X83252538Y-129069882D01*
X83151523Y-129036210D01*
X83084180Y-128968867D01*
X83050508Y-128867851D01*
X83084180Y-128766836D01*
X83252539Y-128598477D01*
X83286211Y-128497462D01*
X83353553Y-128093400D02*
X83622927Y-127824027D01*
X83218867Y-127756683D02*
X83824958Y-128362775D01*
X83925973Y-128396447D01*
X84026988Y-128362775D01*
X84094332Y-128295431D01*
X84633081Y-127756683D02*
X83925974Y-127049576D01*
X84599409Y-127723011D02*
X84565737Y-127824026D01*
X84431050Y-127958714D01*
X84330035Y-127992385D01*
X84262691Y-127992385D01*
X84161676Y-127958714D01*
X83959645Y-127756683D01*
X83925973Y-127655667D01*
X83925973Y-127588324D01*
X83959645Y-127487309D01*
X84094333Y-127352621D01*
X84195348Y-127318950D01*
X77419966Y-130055584D02*
X78295431Y-130594332D01*
X77925043Y-129954568D01*
X78564806Y-130324957D01*
X78026058Y-129449492D01*
X79002538Y-129887225D02*
X78531133Y-129415820D01*
X78295431Y-129180118D02*
X78295431Y-129247462D01*
X78362775Y-129247462D01*
X78362775Y-129180118D01*
X78295431Y-129180118D01*
X78362775Y-129247462D01*
X79204569Y-128944416D02*
X78968866Y-129180118D01*
X79339255Y-129550508D02*
X78632149Y-128843401D01*
X78968867Y-128506683D01*
X79945347Y-128944416D02*
X79473942Y-128473012D01*
X79238240Y-128237310D02*
X79238240Y-128304653D01*
X79305584Y-128304653D01*
X79305584Y-128237310D01*
X79238240Y-128237310D01*
X79305584Y-128304653D01*
X85520981Y-129954569D02*
X85958714Y-129516836D01*
X85992385Y-130021912D01*
X86093401Y-129920896D01*
X86194416Y-129887224D01*
X86261760Y-129887224D01*
X86362776Y-129920897D01*
X86531134Y-130089255D01*
X86564806Y-130190271D01*
X86564806Y-130257614D01*
X86531134Y-130358629D01*
X86329103Y-130560660D01*
X86228088Y-130594332D01*
X86160745Y-130594332D01*
X86430118Y-129516836D02*
X87069882Y-129819882D01*
X86766836Y-129180118D01*
X86733164Y-128742385D02*
X87170898Y-128304652D01*
X87204569Y-128809729D01*
X87305584Y-128708713D01*
X87406600Y-128675041D01*
X87473943Y-128675041D01*
X87574959Y-128708714D01*
X87743317Y-128877072D01*
X87776989Y-128978087D01*
X87776989Y-129045431D01*
X87743317Y-129146446D01*
X87541286Y-129348477D01*
X87440271Y-129382149D01*
X87372928Y-129382149D01*
X87816413Y-129476481D02*
X87715398Y-129510152D01*
X87614382Y-129611167D01*
X87547038Y-129745855D01*
X87547038Y-129880542D01*
X87580710Y-129981557D01*
X87681725Y-130149916D01*
X87782741Y-130250931D01*
X87951100Y-130351947D01*
X88052115Y-130385618D01*
X88186802Y-130385618D01*
X88321489Y-130318274D01*
X88388833Y-130250931D01*
X88456176Y-130116244D01*
X88456176Y-130048900D01*
X88220474Y-129813198D01*
X88085787Y-129947885D01*
X88826565Y-129813198D02*
X88119458Y-129106092D01*
X88388833Y-128836717D01*
X88489848Y-128803045D01*
X88557191Y-128803045D01*
X88658206Y-128836717D01*
X88759222Y-128937732D01*
X88792893Y-129038747D01*
X88792893Y-129106091D01*
X88759222Y-129207106D01*
X88489847Y-129476481D01*
X89466328Y-129106092D02*
X89601015Y-129038748D01*
X89769374Y-128870389D01*
X89803046Y-128769374D01*
X89803046Y-128702030D01*
X89769374Y-128601015D01*
X89702031Y-128533672D01*
X89601016Y-128500000D01*
X89533672Y-128500000D01*
X89432657Y-128533671D01*
X89264297Y-128634687D01*
X89163282Y-128668359D01*
X89095939Y-128668359D01*
X88994924Y-128634687D01*
X88927580Y-128567343D01*
X88893908Y-128466328D01*
X88893908Y-128398985D01*
X88927580Y-128297970D01*
X89095939Y-128129610D01*
X89230626Y-128062267D01*
X89937733Y-127287817D02*
X90341794Y-126883755D01*
X90846870Y-127792893D02*
X90139763Y-127085786D01*
X91217260Y-127422504D02*
X91116245Y-126580709D01*
X90745855Y-126951099D02*
X91587649Y-127052114D01*
D12*
X107678571Y-102642858D02*
X109178571Y-102142858D01*
X107678571Y-101642858D01*
X109178571Y-100357144D02*
X109178571Y-101214287D01*
X109178571Y-100785715D02*
X107678571Y-100785715D01*
X107892857Y-100928572D01*
X108035714Y-101071430D01*
X108107143Y-101214287D01*
X109035714Y-99714287D02*
X109107143Y-99642859D01*
X109178571Y-99714287D01*
X109107143Y-99785716D01*
X109035714Y-99714287D01*
X109178571Y-99714287D01*
X107821429Y-99071430D02*
X107750000Y-99000001D01*
X107678571Y-98857144D01*
X107678571Y-98500001D01*
X107750000Y-98357144D01*
X107821429Y-98285715D01*
X107964286Y-98214287D01*
X108107143Y-98214287D01*
X108321429Y-98285715D01*
X109178571Y-99142858D01*
X109178571Y-98214287D01*
X107678571Y-96357145D02*
X107964286Y-96500002D01*
X109035714Y-94857144D02*
X109107143Y-94928573D01*
X109178571Y-95142859D01*
X109178571Y-95285716D01*
X109107143Y-95500001D01*
X108964286Y-95642859D01*
X108821429Y-95714287D01*
X108535714Y-95785716D01*
X108321429Y-95785716D01*
X108035714Y-95714287D01*
X107892857Y-95642859D01*
X107750000Y-95500001D01*
X107678571Y-95285716D01*
X107678571Y-95142859D01*
X107750000Y-94928573D01*
X107821429Y-94857144D01*
X109178571Y-93571430D02*
X108392857Y-93571430D01*
X108250000Y-93642859D01*
X108178571Y-93785716D01*
X108178571Y-94071430D01*
X108250000Y-94214287D01*
X109107143Y-93571430D02*
X109178571Y-93714287D01*
X109178571Y-94071430D01*
X109107143Y-94214287D01*
X108964286Y-94285716D01*
X108821429Y-94285716D01*
X108678571Y-94214287D01*
X108607143Y-94071430D01*
X108607143Y-93714287D01*
X108535714Y-93571430D01*
X108178571Y-92857144D02*
X109678571Y-92857144D01*
X108250000Y-92857144D02*
X108178571Y-92714287D01*
X108178571Y-92428573D01*
X108250000Y-92285716D01*
X108321429Y-92214287D01*
X108464286Y-92142858D01*
X108892857Y-92142858D01*
X109035714Y-92214287D01*
X109107143Y-92285716D01*
X109178571Y-92428573D01*
X109178571Y-92714287D01*
X109107143Y-92857144D01*
X108178571Y-91714287D02*
X108178571Y-91142858D01*
X107678571Y-91500001D02*
X108964286Y-91500001D01*
X109107143Y-91428573D01*
X109178571Y-91285715D01*
X109178571Y-91142858D01*
X109178571Y-90000001D02*
X108392857Y-90000001D01*
X108250000Y-90071430D01*
X108178571Y-90214287D01*
X108178571Y-90500001D01*
X108250000Y-90642858D01*
X109107143Y-90000001D02*
X109178571Y-90142858D01*
X109178571Y-90500001D01*
X109107143Y-90642858D01*
X108964286Y-90714287D01*
X108821429Y-90714287D01*
X108678571Y-90642858D01*
X108607143Y-90500001D01*
X108607143Y-90142858D01*
X108535714Y-90000001D01*
X109178571Y-89285715D02*
X108178571Y-89285715D01*
X107678571Y-89285715D02*
X107750000Y-89357144D01*
X107821429Y-89285715D01*
X107750000Y-89214287D01*
X107678571Y-89285715D01*
X107821429Y-89285715D01*
X108178571Y-88571429D02*
X109178571Y-88571429D01*
X108321429Y-88571429D02*
X108250000Y-88500001D01*
X108178571Y-88357143D01*
X108178571Y-88142858D01*
X108250000Y-88000001D01*
X108392857Y-87928572D01*
X109178571Y-87928572D01*
X109178571Y-86071429D02*
X107678571Y-86071429D01*
X108392857Y-86071429D02*
X108392857Y-85214286D01*
X109178571Y-85214286D02*
X107678571Y-85214286D01*
X109035714Y-84500000D02*
X109107143Y-84428572D01*
X109178571Y-84500000D01*
X109107143Y-84571429D01*
X109035714Y-84500000D01*
X109178571Y-84500000D01*
X109178571Y-83785714D02*
X107678571Y-83785714D01*
X108750000Y-83285714D01*
X107678571Y-82785714D01*
X109178571Y-82785714D01*
X109178571Y-81857142D02*
X109107143Y-82000000D01*
X109035714Y-82071428D01*
X108892857Y-82142857D01*
X108464286Y-82142857D01*
X108321429Y-82071428D01*
X108250000Y-82000000D01*
X108178571Y-81857142D01*
X108178571Y-81642857D01*
X108250000Y-81500000D01*
X108321429Y-81428571D01*
X108464286Y-81357142D01*
X108892857Y-81357142D01*
X109035714Y-81428571D01*
X109107143Y-81500000D01*
X109178571Y-81642857D01*
X109178571Y-81857142D01*
X109178571Y-80714285D02*
X108178571Y-80714285D01*
X108464286Y-80714285D02*
X108321429Y-80642857D01*
X108250000Y-80571428D01*
X108178571Y-80428571D01*
X108178571Y-80285714D01*
X108178571Y-79142857D02*
X109392857Y-79142857D01*
X109535714Y-79214286D01*
X109607143Y-79285714D01*
X109678571Y-79428571D01*
X109678571Y-79642857D01*
X109607143Y-79785714D01*
X109107143Y-79142857D02*
X109178571Y-79285714D01*
X109178571Y-79571428D01*
X109107143Y-79714286D01*
X109035714Y-79785714D01*
X108892857Y-79857143D01*
X108464286Y-79857143D01*
X108321429Y-79785714D01*
X108250000Y-79714286D01*
X108178571Y-79571428D01*
X108178571Y-79285714D01*
X108250000Y-79142857D01*
X109178571Y-77785714D02*
X108392857Y-77785714D01*
X108250000Y-77857143D01*
X108178571Y-78000000D01*
X108178571Y-78285714D01*
X108250000Y-78428571D01*
X109107143Y-77785714D02*
X109178571Y-77928571D01*
X109178571Y-78285714D01*
X109107143Y-78428571D01*
X108964286Y-78500000D01*
X108821429Y-78500000D01*
X108678571Y-78428571D01*
X108607143Y-78285714D01*
X108607143Y-77928571D01*
X108535714Y-77785714D01*
X108178571Y-77071428D02*
X109178571Y-77071428D01*
X108321429Y-77071428D02*
X108250000Y-77000000D01*
X108178571Y-76857142D01*
X108178571Y-76642857D01*
X108250000Y-76500000D01*
X108392857Y-76428571D01*
X109178571Y-76428571D01*
X107678571Y-75642857D02*
X107964286Y-75785714D01*
D13*
X85000000Y-120047619D02*
X85047619Y-120000000D01*
X85142857Y-119952381D01*
X85380953Y-119952381D01*
X85476191Y-120000000D01*
X85523810Y-120047619D01*
X85571429Y-120142857D01*
X85571429Y-120238095D01*
X85523810Y-120380952D01*
X84952381Y-120952381D01*
X85571429Y-120952381D01*
X86000000Y-120857143D02*
X86047619Y-120904762D01*
X86000000Y-120952381D01*
X85952381Y-120904762D01*
X86000000Y-120857143D01*
X86000000Y-120952381D01*
X86428571Y-120047619D02*
X86476190Y-120000000D01*
X86571428Y-119952381D01*
X86809524Y-119952381D01*
X86904762Y-120000000D01*
X86952381Y-120047619D01*
X87000000Y-120142857D01*
X87000000Y-120238095D01*
X86952381Y-120380952D01*
X86380952Y-120952381D01*
X87000000Y-120952381D01*
X87428571Y-120952381D02*
X87428571Y-119952381D01*
X88000000Y-120952381D02*
X87571428Y-120380952D01*
X88000000Y-119952381D02*
X87428571Y-120523810D01*
X80059524Y-122702381D02*
X79488095Y-122702381D01*
X79773809Y-122702381D02*
X79773809Y-121702381D01*
X79678571Y-121845238D01*
X79583333Y-121940476D01*
X79488095Y-121988095D01*
X80678571Y-121702381D02*
X80773810Y-121702381D01*
X80869048Y-121750000D01*
X80916667Y-121797619D01*
X80964286Y-121892857D01*
X81011905Y-122083333D01*
X81011905Y-122321429D01*
X80964286Y-122511905D01*
X80916667Y-122607143D01*
X80869048Y-122654762D01*
X80773810Y-122702381D01*
X80678571Y-122702381D01*
X80583333Y-122654762D01*
X80535714Y-122607143D01*
X80488095Y-122511905D01*
X80440476Y-122321429D01*
X80440476Y-122083333D01*
X80488095Y-121892857D01*
X80535714Y-121797619D01*
X80583333Y-121750000D01*
X80678571Y-121702381D01*
X81440476Y-122702381D02*
X81440476Y-121702381D01*
X82011905Y-122702381D02*
X81583333Y-122130952D01*
X82011905Y-121702381D02*
X81440476Y-122273810D01*
D12*
X100328572Y-131107143D02*
X101471429Y-131107143D01*
X100900000Y-131678571D02*
X100900000Y-130535714D01*
X111500000Y-86000000D02*
X111428571Y-86142857D01*
X111428571Y-86357143D01*
X111500000Y-86571428D01*
X111642857Y-86714286D01*
X111785714Y-86785714D01*
X112071429Y-86857143D01*
X112285714Y-86857143D01*
X112571429Y-86785714D01*
X112714286Y-86714286D01*
X112857143Y-86571428D01*
X112928571Y-86357143D01*
X112928571Y-86214286D01*
X112857143Y-86000000D01*
X112785714Y-85928571D01*
X112285714Y-85928571D01*
X112285714Y-86214286D01*
X112928571Y-85285714D02*
X111428571Y-85285714D01*
X111428571Y-84714286D01*
X111500000Y-84571428D01*
X111571429Y-84500000D01*
X111714286Y-84428571D01*
X111928571Y-84428571D01*
X112071429Y-84500000D01*
X112142857Y-84571428D01*
X112214286Y-84714286D01*
X112214286Y-85285714D01*
X112928571Y-83071428D02*
X112928571Y-83785714D01*
X111428571Y-83785714D01*
X111928571Y-82714285D02*
X112928571Y-82357142D01*
X111928571Y-82000000D01*
X111428571Y-81571428D02*
X111428571Y-80642857D01*
X112000000Y-81142857D01*
X112000000Y-80928571D01*
X112071429Y-80785714D01*
X112142857Y-80714285D01*
X112285714Y-80642857D01*
X112642857Y-80642857D01*
X112785714Y-80714285D01*
X112857143Y-80785714D01*
X112928571Y-80928571D01*
X112928571Y-81357143D01*
X112857143Y-81500000D01*
X112785714Y-81571428D01*
X91557144Y-108078571D02*
X92485715Y-108078571D01*
X91985715Y-108650000D01*
X92200001Y-108650000D01*
X92342858Y-108721429D01*
X92414287Y-108792857D01*
X92485715Y-108935714D01*
X92485715Y-109292857D01*
X92414287Y-109435714D01*
X92342858Y-109507143D01*
X92200001Y-109578571D01*
X91771429Y-109578571D01*
X91628572Y-109507143D01*
X91557144Y-109435714D01*
X93128572Y-109435714D02*
X93200000Y-109507143D01*
X93128572Y-109578571D01*
X93057143Y-109507143D01*
X93128572Y-109435714D01*
X93128572Y-109578571D01*
X93700001Y-108078571D02*
X94628572Y-108078571D01*
X94128572Y-108650000D01*
X94342858Y-108650000D01*
X94485715Y-108721429D01*
X94557144Y-108792857D01*
X94628572Y-108935714D01*
X94628572Y-109292857D01*
X94557144Y-109435714D01*
X94485715Y-109507143D01*
X94342858Y-109578571D01*
X93914286Y-109578571D01*
X93771429Y-109507143D01*
X93700001Y-109435714D01*
X95128572Y-108578571D02*
X95485715Y-109578571D01*
X95842857Y-108578571D01*
X92985715Y-73078571D02*
X92271429Y-73078571D01*
X92200000Y-73792857D01*
X92271429Y-73721429D01*
X92414286Y-73650000D01*
X92771429Y-73650000D01*
X92914286Y-73721429D01*
X92985715Y-73792857D01*
X93057143Y-73935714D01*
X93057143Y-74292857D01*
X92985715Y-74435714D01*
X92914286Y-74507143D01*
X92771429Y-74578571D01*
X92414286Y-74578571D01*
X92271429Y-74507143D01*
X92200000Y-74435714D01*
X93557143Y-73578571D02*
X93914286Y-74578571D01*
X94271428Y-73578571D01*
X74650000Y-94585714D02*
X74578571Y-94728571D01*
X74578571Y-94942857D01*
X74650000Y-95157142D01*
X74792857Y-95300000D01*
X74935714Y-95371428D01*
X75221429Y-95442857D01*
X75435714Y-95442857D01*
X75721429Y-95371428D01*
X75864286Y-95300000D01*
X76007143Y-95157142D01*
X76078571Y-94942857D01*
X76078571Y-94800000D01*
X76007143Y-94585714D01*
X75935714Y-94514285D01*
X75435714Y-94514285D01*
X75435714Y-94800000D01*
X76078571Y-93871428D02*
X75078571Y-93871428D01*
X75364286Y-93871428D02*
X75221429Y-93800000D01*
X75150000Y-93728571D01*
X75078571Y-93585714D01*
X75078571Y-93442857D01*
X76078571Y-92728571D02*
X76007143Y-92871429D01*
X75935714Y-92942857D01*
X75792857Y-93014286D01*
X75364286Y-93014286D01*
X75221429Y-92942857D01*
X75150000Y-92871429D01*
X75078571Y-92728571D01*
X75078571Y-92514286D01*
X75150000Y-92371429D01*
X75221429Y-92300000D01*
X75364286Y-92228571D01*
X75792857Y-92228571D01*
X75935714Y-92300000D01*
X76007143Y-92371429D01*
X76078571Y-92514286D01*
X76078571Y-92728571D01*
X75078571Y-90942857D02*
X76078571Y-90942857D01*
X75078571Y-91585714D02*
X75864286Y-91585714D01*
X76007143Y-91514286D01*
X76078571Y-91371428D01*
X76078571Y-91157143D01*
X76007143Y-91014286D01*
X75935714Y-90942857D01*
X75078571Y-90228571D02*
X76078571Y-90228571D01*
X75221429Y-90228571D02*
X75150000Y-90157143D01*
X75078571Y-90014285D01*
X75078571Y-89800000D01*
X75150000Y-89657143D01*
X75292857Y-89585714D01*
X76078571Y-89585714D01*
X76078571Y-88228571D02*
X74578571Y-88228571D01*
X76007143Y-88228571D02*
X76078571Y-88371428D01*
X76078571Y-88657142D01*
X76007143Y-88800000D01*
X75935714Y-88871428D01*
X75792857Y-88942857D01*
X75364286Y-88942857D01*
X75221429Y-88871428D01*
X75150000Y-88800000D01*
X75078571Y-88657142D01*
X75078571Y-88371428D01*
X75150000Y-88228571D01*
D13*
X121102381Y-111340476D02*
X121102381Y-111911905D01*
X121102381Y-111626191D02*
X120102381Y-111626191D01*
X120245238Y-111721429D01*
X120340476Y-111816667D01*
X120388095Y-111911905D01*
X120102381Y-110721429D02*
X120102381Y-110626190D01*
X120150000Y-110530952D01*
X120197619Y-110483333D01*
X120292857Y-110435714D01*
X120483333Y-110388095D01*
X120721429Y-110388095D01*
X120911905Y-110435714D01*
X121007143Y-110483333D01*
X121054762Y-110530952D01*
X121102381Y-110626190D01*
X121102381Y-110721429D01*
X121054762Y-110816667D01*
X121007143Y-110864286D01*
X120911905Y-110911905D01*
X120721429Y-110959524D01*
X120483333Y-110959524D01*
X120292857Y-110911905D01*
X120197619Y-110864286D01*
X120150000Y-110816667D01*
X120102381Y-110721429D01*
X121102381Y-109959524D02*
X120102381Y-109959524D01*
X121102381Y-109388095D02*
X120530952Y-109816667D01*
X120102381Y-109388095D02*
X120673810Y-109959524D01*
X111300000Y-106447619D02*
X111347619Y-106400000D01*
X111442857Y-106352381D01*
X111680953Y-106352381D01*
X111776191Y-106400000D01*
X111823810Y-106447619D01*
X111871429Y-106542857D01*
X111871429Y-106638095D01*
X111823810Y-106780952D01*
X111252381Y-107352381D01*
X111871429Y-107352381D01*
X112300000Y-107257143D02*
X112347619Y-107304762D01*
X112300000Y-107352381D01*
X112252381Y-107304762D01*
X112300000Y-107257143D01*
X112300000Y-107352381D01*
X112728571Y-106447619D02*
X112776190Y-106400000D01*
X112871428Y-106352381D01*
X113109524Y-106352381D01*
X113204762Y-106400000D01*
X113252381Y-106447619D01*
X113300000Y-106542857D01*
X113300000Y-106638095D01*
X113252381Y-106780952D01*
X112680952Y-107352381D01*
X113300000Y-107352381D01*
X113728571Y-107352381D02*
X113728571Y-106352381D01*
X114300000Y-107352381D02*
X113871428Y-106780952D01*
X114300000Y-106352381D02*
X113728571Y-106923810D01*
D14*
X83270000Y-75480000D02*
X106130000Y-75480000D01*
X106130000Y-75480000D02*
X106130000Y-78020000D01*
X106130000Y-78020000D02*
X83270000Y-78020000D01*
X80450000Y-75200000D02*
X82000000Y-75200000D01*
X83270000Y-75480000D02*
X83270000Y-78020000D01*
X82000000Y-78300000D02*
X80450000Y-78300000D01*
X80450000Y-78300000D02*
X80450000Y-75200000D01*
X77730000Y-101230000D02*
X77730000Y-78370000D01*
X77730000Y-78370000D02*
X80270000Y-78370000D01*
X80270000Y-78370000D02*
X80270000Y-101230000D01*
X77450000Y-104050000D02*
X77450000Y-102500000D01*
X77730000Y-101230000D02*
X80270000Y-101230000D01*
X80550000Y-102500000D02*
X80550000Y-104050000D01*
X80550000Y-104050000D02*
X77450000Y-104050000D01*
X69030000Y-79700000D02*
X69030000Y-130500000D01*
X74110000Y-127960000D02*
X74110000Y-79700000D01*
X69030000Y-79700000D02*
X74110000Y-79700000D01*
X69030000Y-130500000D02*
X71570000Y-130500000D01*
X72840000Y-130780000D02*
X74390000Y-130780000D01*
X71570000Y-130500000D02*
X71570000Y-127960000D01*
X71570000Y-127960000D02*
X74110000Y-127960000D01*
X74390000Y-130780000D02*
X74390000Y-129230000D01*
X106040000Y-136040000D02*
X100960000Y-136040000D01*
X100960000Y-130325000D02*
X100960000Y-131595000D01*
X100960000Y-136040000D02*
X100960000Y-135405000D01*
X106040000Y-130960000D02*
X106040000Y-131595000D01*
X106040000Y-136040000D02*
X106040000Y-135405000D01*
X106040000Y-136040000D02*
X106040000Y-136675000D01*
X106040000Y-136675000D02*
X100960000Y-136675000D01*
X100960000Y-136675000D02*
X100960000Y-136040000D01*
X100960000Y-130325000D02*
X106040000Y-130325000D01*
X106040000Y-130325000D02*
X106040000Y-130960000D01*
X112450000Y-113970000D02*
G75*
G03X112450000Y-113970000I-600000J0D01*
G01*
X121350000Y-115370000D02*
X121350000Y-129370000D01*
X111150000Y-115370000D02*
X121350000Y-115370000D01*
X111150000Y-115370000D02*
X111150000Y-129370000D01*
X111150000Y-129370000D02*
X121350000Y-129370000D01*
D15*
X108775440Y-131405440D02*
X113164560Y-131405440D01*
X113164560Y-131405440D02*
X113164560Y-135794560D01*
X108775440Y-135794560D02*
X113164560Y-135794560D01*
X108775440Y-131405440D02*
X108775440Y-135794560D01*
D16*
X99752300Y-129399160D02*
X99752300Y-128997840D01*
X99752300Y-128997840D02*
X99752300Y-127600840D01*
X101047700Y-129399160D02*
X101047700Y-128997840D01*
X101047700Y-128997840D02*
X101047700Y-127600840D01*
D17*
X99900000Y-129000000D02*
X100900000Y-129000000D01*
D16*
X106602300Y-133149160D02*
X106602300Y-132747840D01*
X106602300Y-132747840D02*
X106602300Y-131350840D01*
X107897700Y-133149160D02*
X107897700Y-132747840D01*
X107897700Y-132747840D02*
X107897700Y-131350840D01*
D17*
X106750000Y-132750000D02*
X107750000Y-132750000D01*
D14*
X89920000Y-136040000D02*
X100080000Y-136040000D01*
X89920000Y-131595000D02*
X89920000Y-130325000D01*
X100080000Y-135405000D02*
X100080000Y-136675000D01*
X100080000Y-136675000D02*
X89920000Y-136675000D01*
X89920000Y-136675000D02*
X89920000Y-135405000D01*
X89920000Y-130325000D02*
X100080000Y-130325000D01*
X100080000Y-130325000D02*
X100080000Y-131595000D01*
X109750000Y-111150000D02*
X109750000Y-112150000D01*
X109750000Y-111150000D02*
X110750000Y-111150000D01*
X110750000Y-111150000D02*
X109750000Y-111150000D01*
X111750000Y-112150000D02*
X111750000Y-113150000D01*
X111750000Y-113150000D02*
X109750000Y-113150000D01*
X109750000Y-113150000D02*
X109750000Y-112150000D01*
X110750000Y-112150000D02*
X110750000Y-111150000D01*
X110750000Y-111150000D02*
X111750000Y-111150000D01*
X111750000Y-111150000D02*
X111750000Y-112150000D01*
X85200840Y-125900240D02*
X85249100Y-125900240D01*
X87999820Y-125199200D02*
X87999820Y-125900240D01*
X87999820Y-125900240D02*
X87750900Y-125900240D01*
X85200840Y-125900240D02*
X85000180Y-125900240D01*
X85000180Y-125900240D02*
X85000180Y-125199200D01*
X103480000Y-106770000D02*
X80620000Y-106770000D01*
X80620000Y-106770000D02*
X80620000Y-104230000D01*
X80620000Y-104230000D02*
X103480000Y-104230000D01*
X106300000Y-107050000D02*
X104750000Y-107050000D01*
X103480000Y-106770000D02*
X103480000Y-104230000D01*
X104750000Y-103950000D02*
X106300000Y-103950000D01*
X106300000Y-103950000D02*
X106300000Y-107050000D01*
D16*
X86998220Y-132501780D02*
X86998220Y-131102240D01*
X86998220Y-131102240D02*
X85001780Y-131102240D01*
X85001780Y-131102240D02*
X85001780Y-132501780D01*
X86998220Y-134498220D02*
X86998220Y-135897760D01*
X86998220Y-135897760D02*
X85001780Y-135897760D01*
X85001780Y-135897760D02*
X85001780Y-134498220D01*
X86698500Y-133799720D02*
X86000000Y-133799720D01*
X86000000Y-133799720D02*
X85301500Y-133799720D01*
X86000000Y-133799720D02*
X86599440Y-133200280D01*
X86599440Y-133200280D02*
X85400560Y-133200280D01*
X85400560Y-133200280D02*
X86000000Y-133799720D01*
X88998220Y-132501780D02*
X88998220Y-131102240D01*
X88998220Y-131102240D02*
X87001780Y-131102240D01*
X87001780Y-131102240D02*
X87001780Y-132501780D01*
X88998220Y-134498220D02*
X88998220Y-135897760D01*
X88998220Y-135897760D02*
X87001780Y-135897760D01*
X87001780Y-135897760D02*
X87001780Y-134498220D01*
X88698500Y-133799720D02*
X88000000Y-133799720D01*
X88000000Y-133799720D02*
X87301500Y-133799720D01*
X88000000Y-133799720D02*
X88599440Y-133200280D01*
X88599440Y-133200280D02*
X87400560Y-133200280D01*
X87400560Y-133200280D02*
X88000000Y-133799720D01*
X84998220Y-132501780D02*
X84998220Y-131102240D01*
X84998220Y-131102240D02*
X83001780Y-131102240D01*
X83001780Y-131102240D02*
X83001780Y-132501780D01*
X84998220Y-134498220D02*
X84998220Y-135897760D01*
X84998220Y-135897760D02*
X83001780Y-135897760D01*
X83001780Y-135897760D02*
X83001780Y-134498220D01*
X84698500Y-133799720D02*
X84000000Y-133799720D01*
X84000000Y-133799720D02*
X83301500Y-133799720D01*
X84000000Y-133799720D02*
X84599440Y-133200280D01*
X84599440Y-133200280D02*
X83400560Y-133200280D01*
X83400560Y-133200280D02*
X84000000Y-133799720D01*
X82998220Y-132501780D02*
X82998220Y-131102240D01*
X82998220Y-131102240D02*
X81001780Y-131102240D01*
X81001780Y-131102240D02*
X81001780Y-132501780D01*
X82998220Y-134498220D02*
X82998220Y-135897760D01*
X82998220Y-135897760D02*
X81001780Y-135897760D01*
X81001780Y-135897760D02*
X81001780Y-134498220D01*
X82698500Y-133799720D02*
X82000000Y-133799720D01*
X82000000Y-133799720D02*
X81301500Y-133799720D01*
X82000000Y-133799720D02*
X82599440Y-133200280D01*
X82599440Y-133200280D02*
X81400560Y-133200280D01*
X81400560Y-133200280D02*
X82000000Y-133799720D01*
X80998220Y-132501780D02*
X80998220Y-131102240D01*
X80998220Y-131102240D02*
X79001780Y-131102240D01*
X79001780Y-131102240D02*
X79001780Y-132501780D01*
X80998220Y-134498220D02*
X80998220Y-135897760D01*
X80998220Y-135897760D02*
X79001780Y-135897760D01*
X79001780Y-135897760D02*
X79001780Y-134498220D01*
X80698500Y-133799720D02*
X80000000Y-133799720D01*
X80000000Y-133799720D02*
X79301500Y-133799720D01*
X80000000Y-133799720D02*
X80599440Y-133200280D01*
X80599440Y-133200280D02*
X79400560Y-133200280D01*
X79400560Y-133200280D02*
X80000000Y-133799720D01*
X78998220Y-132501780D02*
X78998220Y-131102240D01*
X78998220Y-131102240D02*
X77001780Y-131102240D01*
X77001780Y-131102240D02*
X77001780Y-132501780D01*
X78998220Y-134498220D02*
X78998220Y-135897760D01*
X78998220Y-135897760D02*
X77001780Y-135897760D01*
X77001780Y-135897760D02*
X77001780Y-134498220D01*
X78698500Y-133799720D02*
X78000000Y-133799720D01*
X78000000Y-133799720D02*
X77301500Y-133799720D01*
X78000000Y-133799720D02*
X78599440Y-133200280D01*
X78599440Y-133200280D02*
X77400560Y-133200280D01*
X77400560Y-133200280D02*
X78000000Y-133799720D01*
D10*
X115300000Y-111240000D02*
X115300000Y-110240000D01*
X116800000Y-111240000D02*
X116800000Y-110240000D01*
X112760000Y-111240000D02*
X112760000Y-110240000D01*
X114260000Y-111240000D02*
X114260000Y-110240000D01*
X79850000Y-126000000D02*
X79850000Y-125000000D01*
X81350000Y-126000000D02*
X81350000Y-125000000D01*
X117840000Y-111240000D02*
X117840000Y-110240000D01*
X119340000Y-111240000D02*
X119340000Y-110240000D01*
X87000000Y-123000000D02*
X86000000Y-123000000D01*
X87000000Y-121500000D02*
X86000000Y-121500000D01*
D14*
X100600000Y-126610000D02*
X100600000Y-126750000D01*
X90000000Y-126800000D02*
X90000000Y-113200000D01*
X90000000Y-113200000D02*
X100600000Y-113200000D01*
X100600000Y-113200000D02*
X100600000Y-126600000D01*
X90066000Y-126749000D02*
X100734000Y-126749000D01*
D18*
G36*
X115384666Y-100142313D02*
X117677633Y-98732784D01*
X117732228Y-100142313D01*
X115384666Y-100142313D01*
X115384666Y-100142313D01*
G37*
X115384666Y-100142313D02*
X117677633Y-98732784D01*
X117732228Y-100142313D01*
X115384666Y-100142313D01*
G36*
X115677491Y-100201871D02*
X117811638Y-100206834D01*
X117781859Y-101144867D01*
X115677491Y-100201871D01*
X115677491Y-100201871D01*
G37*
X115677491Y-100201871D02*
X117811638Y-100206834D01*
X117781859Y-101144867D01*
X115677491Y-100201871D01*
G36*
X117851343Y-101254055D02*
X117856306Y-98717894D01*
X118049869Y-98757599D01*
X118164021Y-99586442D01*
X118794338Y-99705558D01*
X118392325Y-100231650D01*
X118039942Y-101115087D01*
X117851343Y-101254055D01*
X117851343Y-101254055D01*
G37*
X117851343Y-101254055D02*
X117856306Y-98717894D01*
X118049869Y-98757599D01*
X118164021Y-99586442D01*
X118794338Y-99705558D01*
X118392325Y-100231650D01*
X118039942Y-101115087D01*
X117851343Y-101254055D01*
G36*
X117780519Y-102295538D02*
X117753791Y-102068352D01*
X117673608Y-101921349D01*
X117557788Y-101850075D01*
X117424148Y-101827802D01*
X117272691Y-101876803D01*
X117156871Y-102001532D01*
X117063323Y-102170808D01*
X116983140Y-102357903D01*
X116880684Y-102616271D01*
X116733681Y-102861276D01*
X116515404Y-103039461D01*
X116185761Y-103110735D01*
X115579931Y-102861276D01*
X115361655Y-102166353D01*
X115419565Y-101725345D01*
X115548749Y-101404612D01*
X115971939Y-101564979D01*
X115865028Y-101814438D01*
X115820482Y-102126262D01*
X116136760Y-102562816D01*
X116279309Y-102518270D01*
X116386220Y-102406904D01*
X116466403Y-102250992D01*
X116533222Y-102077261D01*
X116644588Y-101809983D01*
X116804955Y-101551614D01*
X117054414Y-101355611D01*
X117428603Y-101279882D01*
X118029978Y-101533796D01*
X118239346Y-102295538D01*
X118168072Y-102843457D01*
X118029978Y-103150827D01*
X117584515Y-102990460D01*
X117718154Y-102705364D01*
X117780519Y-102295538D01*
X117780519Y-102295538D01*
G37*
X117780519Y-102295538D02*
X117753791Y-102068352D01*
X117673608Y-101921349D01*
X117557788Y-101850075D01*
X117424148Y-101827802D01*
X117272691Y-101876803D01*
X117156871Y-102001532D01*
X117063323Y-102170808D01*
X116983140Y-102357903D01*
X116880684Y-102616271D01*
X116733681Y-102861276D01*
X116515404Y-103039461D01*
X116185761Y-103110735D01*
X115579931Y-102861276D01*
X115361655Y-102166353D01*
X115419565Y-101725345D01*
X115548749Y-101404612D01*
X115971939Y-101564979D01*
X115865028Y-101814438D01*
X115820482Y-102126262D01*
X116136760Y-102562816D01*
X116279309Y-102518270D01*
X116386220Y-102406904D01*
X116466403Y-102250992D01*
X116533222Y-102077261D01*
X116644588Y-101809983D01*
X116804955Y-101551614D01*
X117054414Y-101355611D01*
X117428603Y-101279882D01*
X118029978Y-101533796D01*
X118239346Y-102295538D01*
X118168072Y-102843457D01*
X118029978Y-103150827D01*
X117584515Y-102990460D01*
X117718154Y-102705364D01*
X117780519Y-102295538D01*
D10*
X117780519Y-102295538D02*
X117753791Y-102068352D01*
X117753791Y-102068352D02*
X117673608Y-101921349D01*
X117673608Y-101921349D02*
X117557788Y-101850075D01*
X117557788Y-101850075D02*
X117424148Y-101827802D01*
X117424148Y-101827802D02*
X117272691Y-101876803D01*
X117272691Y-101876803D02*
X117156871Y-102001532D01*
X117156871Y-102001532D02*
X117063323Y-102170808D01*
X117063323Y-102170808D02*
X116983140Y-102357903D01*
X116983140Y-102357903D02*
X116880684Y-102616271D01*
X116880684Y-102616271D02*
X116733681Y-102861276D01*
X116733681Y-102861276D02*
X116515404Y-103039461D01*
X116515404Y-103039461D02*
X116185761Y-103110735D01*
X116185761Y-103110735D02*
X115579931Y-102861276D01*
X115579931Y-102861276D02*
X115361655Y-102166353D01*
X115361655Y-102166353D02*
X115419565Y-101725345D01*
X115419565Y-101725345D02*
X115548749Y-101404612D01*
X115548749Y-101404612D02*
X115971939Y-101564979D01*
X115971939Y-101564979D02*
X115865028Y-101814438D01*
X115865028Y-101814438D02*
X115820482Y-102126262D01*
X115820482Y-102126262D02*
X116136760Y-102562816D01*
X116136760Y-102562816D02*
X116279309Y-102518270D01*
X116279309Y-102518270D02*
X116386220Y-102406904D01*
X116386220Y-102406904D02*
X116466403Y-102250992D01*
X116466403Y-102250992D02*
X116533222Y-102077261D01*
X116533222Y-102077261D02*
X116644588Y-101809983D01*
X116644588Y-101809983D02*
X116804955Y-101551614D01*
X116804955Y-101551614D02*
X117054414Y-101355611D01*
X117054414Y-101355611D02*
X117428603Y-101279882D01*
X117428603Y-101279882D02*
X118029978Y-101533796D01*
X118029978Y-101533796D02*
X118239346Y-102295538D01*
X118239346Y-102295538D02*
X118168072Y-102843457D01*
X118168072Y-102843457D02*
X118029978Y-103150827D01*
X118029978Y-103150827D02*
X117584515Y-102990460D01*
X117584515Y-102990460D02*
X117718154Y-102705364D01*
X117718154Y-102705364D02*
X117780519Y-102295538D01*
D18*
G36*
X118181436Y-98633832D02*
X117727063Y-98633832D01*
X117727063Y-98032457D01*
X115878392Y-98032457D01*
X115878392Y-98633832D01*
X115424020Y-98633832D01*
X115424020Y-96883163D01*
X115878392Y-96883163D01*
X115878392Y-97480083D01*
X117727063Y-97480083D01*
X117727063Y-96883163D01*
X118181436Y-96883163D01*
X118181436Y-98633832D01*
X118181436Y-98633832D01*
G37*
X118181436Y-98633832D02*
X117727063Y-98633832D01*
X117727063Y-98032457D01*
X115878392Y-98032457D01*
X115878392Y-98633832D01*
X115424020Y-98633832D01*
X115424020Y-96883163D01*
X115878392Y-96883163D01*
X115878392Y-97480083D01*
X117727063Y-97480083D01*
X117727063Y-96883163D01*
X118181436Y-96883163D01*
X118181436Y-98633832D01*
D10*
X118181436Y-98633832D02*
X117727063Y-98633832D01*
X117727063Y-98633832D02*
X117727063Y-98032457D01*
X117727063Y-98032457D02*
X115878392Y-98032457D01*
X115878392Y-98032457D02*
X115878392Y-98633832D01*
X115878392Y-98633832D02*
X115424020Y-98633832D01*
X115424020Y-98633832D02*
X115424020Y-96883163D01*
X115424020Y-96883163D02*
X115878392Y-96883163D01*
X115878392Y-96883163D02*
X115878392Y-97480083D01*
X115878392Y-97480083D02*
X117727063Y-97480083D01*
X117727063Y-97480083D02*
X117727063Y-96883163D01*
X117727063Y-96883163D02*
X118181436Y-96883163D01*
X118181436Y-96883163D02*
X118181436Y-98633832D01*
D18*
G36*
X118181436Y-94597938D02*
X118181436Y-96330789D01*
X115424020Y-96330789D01*
X115424020Y-95778414D01*
X117727063Y-95778414D01*
X117727063Y-94597938D01*
X118181436Y-94597938D01*
X118181436Y-94597938D01*
G37*
X118181436Y-94597938D02*
X118181436Y-96330789D01*
X115424020Y-96330789D01*
X115424020Y-95778414D01*
X117727063Y-95778414D01*
X117727063Y-94597938D01*
X118181436Y-94597938D01*
D10*
X118181436Y-94597938D02*
X118181436Y-96330789D01*
X118181436Y-96330789D02*
X115424020Y-96330789D01*
X115424020Y-96330789D02*
X115424020Y-95778414D01*
X115424020Y-95778414D02*
X117727063Y-95778414D01*
X117727063Y-95778414D02*
X117727063Y-94597938D01*
X117727063Y-94597938D02*
X118181436Y-94597938D01*
D18*
G36*
X117348420Y-92330531D02*
X117669150Y-93029908D01*
X117548875Y-92914088D01*
X117348417Y-92869542D01*
X117063320Y-92998726D01*
X116974227Y-93337277D01*
X116974227Y-93631283D01*
X116974230Y-93631283D01*
X117722609Y-93631283D01*
X117735973Y-93506553D01*
X117740424Y-93368460D01*
X117727060Y-93185820D01*
X117669150Y-93029908D01*
X117348420Y-92330531D01*
X116519855Y-93417461D01*
X116430763Y-93101182D01*
X116176849Y-92994271D01*
X116020937Y-93025454D01*
X115927390Y-93110091D01*
X115882844Y-93234821D01*
X115869480Y-93381824D01*
X115873938Y-93511008D01*
X115887302Y-93631283D01*
X116519859Y-93631283D01*
X116519859Y-93417461D01*
X116519855Y-93417461D01*
X117348420Y-92330531D01*
X117767155Y-92415169D01*
X118034432Y-92646810D01*
X118176981Y-92989816D01*
X118217072Y-93413006D01*
X118194799Y-93791649D01*
X118136889Y-94179202D01*
X115459656Y-94179202D01*
X115415110Y-93836196D01*
X115392837Y-93466462D01*
X115459656Y-92958634D01*
X115628932Y-92651265D01*
X115860573Y-92499807D01*
X116118942Y-92459715D01*
X116466403Y-92557717D01*
X116706953Y-92811631D01*
X116983140Y-92432988D01*
X117348420Y-92330531D01*
X117348420Y-92330531D01*
G37*
X117348420Y-92330531D02*
X117669150Y-93029908D01*
X117548875Y-92914088D01*
X117348417Y-92869542D01*
X117063320Y-92998726D01*
X116974227Y-93337277D01*
X116974227Y-93631283D01*
X116974230Y-93631283D01*
X117722609Y-93631283D01*
X117735973Y-93506553D01*
X117740424Y-93368460D01*
X117727060Y-93185820D01*
X117669150Y-93029908D01*
X117348420Y-92330531D01*
X116519855Y-93417461D01*
X116430763Y-93101182D01*
X116176849Y-92994271D01*
X116020937Y-93025454D01*
X115927390Y-93110091D01*
X115882844Y-93234821D01*
X115869480Y-93381824D01*
X115873938Y-93511008D01*
X115887302Y-93631283D01*
X116519859Y-93631283D01*
X116519859Y-93417461D01*
X116519855Y-93417461D01*
X117348420Y-92330531D01*
X117767155Y-92415169D01*
X118034432Y-92646810D01*
X118176981Y-92989816D01*
X118217072Y-93413006D01*
X118194799Y-93791649D01*
X118136889Y-94179202D01*
X115459656Y-94179202D01*
X115415110Y-93836196D01*
X115392837Y-93466462D01*
X115459656Y-92958634D01*
X115628932Y-92651265D01*
X115860573Y-92499807D01*
X116118942Y-92459715D01*
X116466403Y-92557717D01*
X116706953Y-92811631D01*
X116983140Y-92432988D01*
X117348420Y-92330531D01*
D10*
X117348420Y-92330531D02*
X117669150Y-93029908D01*
X117669150Y-93029908D02*
X117548875Y-92914088D01*
X117548875Y-92914088D02*
X117348417Y-92869542D01*
X117348417Y-92869542D02*
X117063320Y-92998726D01*
X117063320Y-92998726D02*
X116974227Y-93337277D01*
X116974227Y-93337277D02*
X116974227Y-93631283D01*
X116974227Y-93631283D02*
X116974230Y-93631283D01*
X116974230Y-93631283D02*
X117722609Y-93631283D01*
X117722609Y-93631283D02*
X117735973Y-93506553D01*
X117735973Y-93506553D02*
X117740424Y-93368460D01*
X117740424Y-93368460D02*
X117727060Y-93185820D01*
X117727060Y-93185820D02*
X117669150Y-93029908D01*
X117669150Y-93029908D02*
X117348420Y-92330531D01*
X117348420Y-92330531D02*
X116519855Y-93417461D01*
X116519855Y-93417461D02*
X116430763Y-93101182D01*
X116430763Y-93101182D02*
X116176849Y-92994271D01*
X116176849Y-92994271D02*
X116020937Y-93025454D01*
X116020937Y-93025454D02*
X115927390Y-93110091D01*
X115927390Y-93110091D02*
X115882844Y-93234821D01*
X115882844Y-93234821D02*
X115869480Y-93381824D01*
X115869480Y-93381824D02*
X115873938Y-93511008D01*
X115873938Y-93511008D02*
X115887302Y-93631283D01*
X115887302Y-93631283D02*
X116519859Y-93631283D01*
X116519859Y-93631283D02*
X116519859Y-93417461D01*
X116519859Y-93417461D02*
X116519855Y-93417461D01*
X116519855Y-93417461D02*
X117348420Y-92330531D01*
X117348420Y-92330531D02*
X117767155Y-92415169D01*
X117767155Y-92415169D02*
X118034432Y-92646810D01*
X118034432Y-92646810D02*
X118176981Y-92989816D01*
X118176981Y-92989816D02*
X118217072Y-93413006D01*
X118217072Y-93413006D02*
X118194799Y-93791649D01*
X118194799Y-93791649D02*
X118136889Y-94179202D01*
X118136889Y-94179202D02*
X115459656Y-94179202D01*
X115459656Y-94179202D02*
X115415110Y-93836196D01*
X115415110Y-93836196D02*
X115392837Y-93466462D01*
X115392837Y-93466462D02*
X115459656Y-92958634D01*
X115459656Y-92958634D02*
X115628932Y-92651265D01*
X115628932Y-92651265D02*
X115860573Y-92499807D01*
X115860573Y-92499807D02*
X116118942Y-92459715D01*
X116118942Y-92459715D02*
X116466403Y-92557717D01*
X116466403Y-92557717D02*
X116706953Y-92811631D01*
X116706953Y-92811631D02*
X116983140Y-92432988D01*
X116983140Y-92432988D02*
X117348420Y-92330531D01*
D18*
G36*
X116800500Y-91515334D02*
X116800500Y-92072163D01*
X115726934Y-91809339D01*
X115361655Y-91078780D01*
X115726934Y-90339311D01*
X116800500Y-90085397D01*
X117878520Y-90343766D01*
X118239346Y-91074325D01*
X117878520Y-91818248D01*
X116800500Y-92072163D01*
X116800500Y-91515334D01*
X117179144Y-91501969D01*
X117482058Y-91439604D01*
X117686971Y-91305966D01*
X117762700Y-91078780D01*
X117686971Y-90856048D01*
X117482058Y-90722409D01*
X117174689Y-90660044D01*
X116800500Y-90642226D01*
X116426311Y-90660044D01*
X116118942Y-90722409D01*
X115914029Y-90851594D01*
X115838300Y-91078780D01*
X115914029Y-91305966D01*
X116123396Y-91439604D01*
X116426311Y-91501969D01*
X116800500Y-91515334D01*
X116800500Y-91515334D01*
G37*
X116800500Y-91515334D02*
X116800500Y-92072163D01*
X115726934Y-91809339D01*
X115361655Y-91078780D01*
X115726934Y-90339311D01*
X116800500Y-90085397D01*
X117878520Y-90343766D01*
X118239346Y-91074325D01*
X117878520Y-91818248D01*
X116800500Y-92072163D01*
X116800500Y-91515334D01*
X117179144Y-91501969D01*
X117482058Y-91439604D01*
X117686971Y-91305966D01*
X117762700Y-91078780D01*
X117686971Y-90856048D01*
X117482058Y-90722409D01*
X117174689Y-90660044D01*
X116800500Y-90642226D01*
X116426311Y-90660044D01*
X116118942Y-90722409D01*
X115914029Y-90851594D01*
X115838300Y-91078780D01*
X115914029Y-91305966D01*
X116123396Y-91439604D01*
X116426311Y-91501969D01*
X116800500Y-91515334D01*
D10*
X116800500Y-91515334D02*
X116800500Y-92072163D01*
X116800500Y-92072163D02*
X115726934Y-91809339D01*
X115726934Y-91809339D02*
X115361655Y-91078780D01*
X115361655Y-91078780D02*
X115726934Y-90339311D01*
X115726934Y-90339311D02*
X116800500Y-90085397D01*
X116800500Y-90085397D02*
X117878520Y-90343766D01*
X117878520Y-90343766D02*
X118239346Y-91074325D01*
X118239346Y-91074325D02*
X117878520Y-91818248D01*
X117878520Y-91818248D02*
X116800500Y-92072163D01*
X116800500Y-92072163D02*
X116800500Y-91515334D01*
X116800500Y-91515334D02*
X117179144Y-91501969D01*
X117179144Y-91501969D02*
X117482058Y-91439604D01*
X117482058Y-91439604D02*
X117686971Y-91305966D01*
X117686971Y-91305966D02*
X117762700Y-91078780D01*
X117762700Y-91078780D02*
X117686971Y-90856048D01*
X117686971Y-90856048D02*
X117482058Y-90722409D01*
X117482058Y-90722409D02*
X117174689Y-90660044D01*
X117174689Y-90660044D02*
X116800500Y-90642226D01*
X116800500Y-90642226D02*
X116426311Y-90660044D01*
X116426311Y-90660044D02*
X116118942Y-90722409D01*
X116118942Y-90722409D02*
X115914029Y-90851594D01*
X115914029Y-90851594D02*
X115838300Y-91078780D01*
X115838300Y-91078780D02*
X115914029Y-91305966D01*
X115914029Y-91305966D02*
X116123396Y-91439604D01*
X116123396Y-91439604D02*
X116426311Y-91501969D01*
X116426311Y-91501969D02*
X116800500Y-91515334D01*
D18*
G36*
X115424020Y-87849173D02*
X115878392Y-87849173D01*
X115878392Y-88575278D01*
X118181436Y-88575278D01*
X118181436Y-89127652D01*
X115878392Y-89127652D01*
X115878392Y-89853757D01*
X115424020Y-89853757D01*
X115424020Y-87849173D01*
X115424020Y-87849173D01*
G37*
X115424020Y-87849173D02*
X115878392Y-87849173D01*
X115878392Y-88575278D01*
X118181436Y-88575278D01*
X118181436Y-89127652D01*
X115878392Y-89127652D01*
X115878392Y-89853757D01*
X115424020Y-89853757D01*
X115424020Y-87849173D01*
D10*
X115424020Y-87849173D02*
X115878392Y-87849173D01*
X115878392Y-87849173D02*
X115878392Y-88575278D01*
X115878392Y-88575278D02*
X118181436Y-88575278D01*
X118181436Y-88575278D02*
X118181436Y-89127652D01*
X118181436Y-89127652D02*
X115878392Y-89127652D01*
X115878392Y-89127652D02*
X115878392Y-89853757D01*
X115878392Y-89853757D02*
X115424020Y-89853757D01*
X115424020Y-89853757D02*
X115424020Y-87849173D01*
D18*
G36*
X114900126Y-100747453D02*
X113040668Y-101120548D01*
X112673591Y-101204795D01*
X112300496Y-101301078D01*
X111897312Y-101409396D01*
X112300496Y-101523732D01*
X112673591Y-101620014D01*
X113040668Y-101704261D01*
X113425799Y-101776474D01*
X113425799Y-101048336D01*
X113040668Y-101120548D01*
X114900126Y-100747453D01*
X114039600Y-100921965D01*
X114039600Y-101914880D01*
X114900126Y-102083374D01*
X114900126Y-102853635D01*
X112896244Y-102318063D01*
X111175192Y-101794527D01*
X111175192Y-100988159D01*
X112914297Y-100464623D01*
X114900126Y-99953122D01*
X114900126Y-100747453D01*
X114900126Y-100747453D01*
G37*
X114900126Y-100747453D02*
X113040668Y-101120548D01*
X112673591Y-101204795D01*
X112300496Y-101301078D01*
X111897312Y-101409396D01*
X112300496Y-101523732D01*
X112673591Y-101620014D01*
X113040668Y-101704261D01*
X113425799Y-101776474D01*
X113425799Y-101048336D01*
X113040668Y-101120548D01*
X114900126Y-100747453D01*
X114039600Y-100921965D01*
X114039600Y-101914880D01*
X114900126Y-102083374D01*
X114900126Y-102853635D01*
X112896244Y-102318063D01*
X111175192Y-101794527D01*
X111175192Y-100988159D01*
X112914297Y-100464623D01*
X114900126Y-99953122D01*
X114900126Y-100747453D01*
D10*
X114900126Y-100747453D02*
X113040668Y-101120548D01*
X113040668Y-101120548D02*
X112673591Y-101204795D01*
X112673591Y-101204795D02*
X112300496Y-101301078D01*
X112300496Y-101301078D02*
X111897312Y-101409396D01*
X111897312Y-101409396D02*
X112300496Y-101523732D01*
X112300496Y-101523732D02*
X112673591Y-101620014D01*
X112673591Y-101620014D02*
X113040668Y-101704261D01*
X113040668Y-101704261D02*
X113425799Y-101776474D01*
X113425799Y-101776474D02*
X113425799Y-101048336D01*
X113425799Y-101048336D02*
X113040668Y-101120548D01*
X113040668Y-101120548D02*
X114900126Y-100747453D01*
X114900126Y-100747453D02*
X114039600Y-100921965D01*
X114039600Y-100921965D02*
X114039600Y-101914880D01*
X114039600Y-101914880D02*
X114900126Y-102083374D01*
X114900126Y-102083374D02*
X114900126Y-102853635D01*
X114900126Y-102853635D02*
X112896244Y-102318063D01*
X112896244Y-102318063D02*
X111175192Y-101794527D01*
X111175192Y-101794527D02*
X111175192Y-100988159D01*
X111175192Y-100988159D02*
X112914297Y-100464623D01*
X112914297Y-100464623D02*
X114900126Y-99953122D01*
X114900126Y-99953122D02*
X114900126Y-100747453D01*
D18*
G36*
X113774823Y-96217012D02*
X114208092Y-97161785D01*
X114045615Y-97005326D01*
X113774820Y-96945150D01*
X113389690Y-97119661D01*
X113269337Y-97577004D01*
X113269337Y-97974169D01*
X113269339Y-97974169D01*
X114280307Y-97974169D01*
X114298360Y-97805675D01*
X114304375Y-97619127D01*
X114286322Y-97372404D01*
X114208092Y-97161785D01*
X113774823Y-96217012D01*
X112655535Y-97685322D01*
X112535182Y-97258067D01*
X112192175Y-97113644D01*
X111981557Y-97155767D01*
X111855186Y-97270103D01*
X111795009Y-97438598D01*
X111776956Y-97637180D01*
X111782971Y-97811693D01*
X111801024Y-97974169D01*
X112655532Y-97974169D01*
X112655532Y-97685322D01*
X112655535Y-97685322D01*
X113774823Y-96217012D01*
X114340483Y-96331348D01*
X114701543Y-96644266D01*
X114894109Y-97107626D01*
X114948268Y-97679304D01*
X114918179Y-98190806D01*
X114839949Y-98714342D01*
X111223334Y-98714342D01*
X111163157Y-98250982D01*
X111133069Y-97751516D01*
X111223334Y-97065503D01*
X111452005Y-96650284D01*
X111764923Y-96445683D01*
X112113947Y-96391524D01*
X112583326Y-96523913D01*
X112908279Y-96866919D01*
X113281374Y-96355418D01*
X113774823Y-96217012D01*
X113774823Y-96217012D01*
G37*
X113774823Y-96217012D02*
X114208092Y-97161785D01*
X114045615Y-97005326D01*
X113774820Y-96945150D01*
X113389690Y-97119661D01*
X113269337Y-97577004D01*
X113269337Y-97974169D01*
X113269339Y-97974169D01*
X114280307Y-97974169D01*
X114298360Y-97805675D01*
X114304375Y-97619127D01*
X114286322Y-97372404D01*
X114208092Y-97161785D01*
X113774823Y-96217012D01*
X112655535Y-97685322D01*
X112535182Y-97258067D01*
X112192175Y-97113644D01*
X111981557Y-97155767D01*
X111855186Y-97270103D01*
X111795009Y-97438598D01*
X111776956Y-97637180D01*
X111782971Y-97811693D01*
X111801024Y-97974169D01*
X112655532Y-97974169D01*
X112655532Y-97685322D01*
X112655535Y-97685322D01*
X113774823Y-96217012D01*
X114340483Y-96331348D01*
X114701543Y-96644266D01*
X114894109Y-97107626D01*
X114948268Y-97679304D01*
X114918179Y-98190806D01*
X114839949Y-98714342D01*
X111223334Y-98714342D01*
X111163157Y-98250982D01*
X111133069Y-97751516D01*
X111223334Y-97065503D01*
X111452005Y-96650284D01*
X111764923Y-96445683D01*
X112113947Y-96391524D01*
X112583326Y-96523913D01*
X112908279Y-96866919D01*
X113281374Y-96355418D01*
X113774823Y-96217012D01*
D10*
X113774823Y-96217012D02*
X114208092Y-97161785D01*
X114208092Y-97161785D02*
X114045615Y-97005326D01*
X114045615Y-97005326D02*
X113774820Y-96945150D01*
X113774820Y-96945150D02*
X113389690Y-97119661D01*
X113389690Y-97119661D02*
X113269337Y-97577004D01*
X113269337Y-97577004D02*
X113269337Y-97974169D01*
X113269337Y-97974169D02*
X113269339Y-97974169D01*
X113269339Y-97974169D02*
X114280307Y-97974169D01*
X114280307Y-97974169D02*
X114298360Y-97805675D01*
X114298360Y-97805675D02*
X114304375Y-97619127D01*
X114304375Y-97619127D02*
X114286322Y-97372404D01*
X114286322Y-97372404D02*
X114208092Y-97161785D01*
X114208092Y-97161785D02*
X113774823Y-96217012D01*
X113774823Y-96217012D02*
X112655535Y-97685322D01*
X112655535Y-97685322D02*
X112535182Y-97258067D01*
X112535182Y-97258067D02*
X112192175Y-97113644D01*
X112192175Y-97113644D02*
X111981557Y-97155767D01*
X111981557Y-97155767D02*
X111855186Y-97270103D01*
X111855186Y-97270103D02*
X111795009Y-97438598D01*
X111795009Y-97438598D02*
X111776956Y-97637180D01*
X111776956Y-97637180D02*
X111782971Y-97811693D01*
X111782971Y-97811693D02*
X111801024Y-97974169D01*
X111801024Y-97974169D02*
X112655532Y-97974169D01*
X112655532Y-97974169D02*
X112655532Y-97685322D01*
X112655532Y-97685322D02*
X112655535Y-97685322D01*
X112655535Y-97685322D02*
X113774823Y-96217012D01*
X113774823Y-96217012D02*
X114340483Y-96331348D01*
X114340483Y-96331348D02*
X114701543Y-96644266D01*
X114701543Y-96644266D02*
X114894109Y-97107626D01*
X114894109Y-97107626D02*
X114948268Y-97679304D01*
X114948268Y-97679304D02*
X114918179Y-98190806D01*
X114918179Y-98190806D02*
X114839949Y-98714342D01*
X114839949Y-98714342D02*
X111223334Y-98714342D01*
X111223334Y-98714342D02*
X111163157Y-98250982D01*
X111163157Y-98250982D02*
X111133069Y-97751516D01*
X111133069Y-97751516D02*
X111223334Y-97065503D01*
X111223334Y-97065503D02*
X111452005Y-96650284D01*
X111452005Y-96650284D02*
X111764923Y-96445683D01*
X111764923Y-96445683D02*
X112113947Y-96391524D01*
X112113947Y-96391524D02*
X112583326Y-96523913D01*
X112583326Y-96523913D02*
X112908279Y-96866919D01*
X112908279Y-96866919D02*
X113281374Y-96355418D01*
X113281374Y-96355418D02*
X113774823Y-96217012D01*
D18*
G36*
X114900126Y-94791686D02*
X111175192Y-94791686D01*
X111175192Y-92535062D01*
X111788994Y-92535062D01*
X111788994Y-94051513D01*
X112625450Y-94051513D01*
X112625450Y-92733644D01*
X113239251Y-92733644D01*
X113239251Y-94051513D01*
X114286324Y-94051513D01*
X114286324Y-92402673D01*
X114900126Y-92402673D01*
X114900126Y-94791686D01*
X114900126Y-94791686D01*
G37*
X114900126Y-94791686D02*
X111175192Y-94791686D01*
X111175192Y-92535062D01*
X111788994Y-92535062D01*
X111788994Y-94051513D01*
X112625450Y-94051513D01*
X112625450Y-92733644D01*
X113239251Y-92733644D01*
X113239251Y-94051513D01*
X114286324Y-94051513D01*
X114286324Y-92402673D01*
X114900126Y-92402673D01*
X114900126Y-94791686D01*
D10*
X114900126Y-94791686D02*
X111175192Y-94791686D01*
X111175192Y-94791686D02*
X111175192Y-92535062D01*
X111175192Y-92535062D02*
X111788994Y-92535062D01*
X111788994Y-92535062D02*
X111788994Y-94051513D01*
X111788994Y-94051513D02*
X112625450Y-94051513D01*
X112625450Y-94051513D02*
X112625450Y-92733644D01*
X112625450Y-92733644D02*
X113239251Y-92733644D01*
X113239251Y-92733644D02*
X113239251Y-94051513D01*
X113239251Y-94051513D02*
X114286324Y-94051513D01*
X114286324Y-94051513D02*
X114286324Y-92402673D01*
X114286324Y-92402673D02*
X114900126Y-92402673D01*
X114900126Y-92402673D02*
X114900126Y-94791686D01*
D18*
G36*
X111133069Y-90014520D02*
X111915368Y-89539125D01*
X111776962Y-90014520D01*
X111782977Y-90116820D01*
X111795012Y-90237173D01*
X112914297Y-90237173D01*
X112914297Y-90074696D01*
X112769873Y-89527089D01*
X112348637Y-89358594D01*
X112348640Y-89358594D01*
X111915368Y-89539125D01*
X111133069Y-90014520D01*
X111205281Y-89436824D01*
X111427935Y-88991517D01*
X111813065Y-88708687D01*
X112354654Y-88606386D01*
X112944386Y-88738775D01*
X113347569Y-89178065D01*
X113696593Y-88961429D01*
X114093759Y-88738775D01*
X114508978Y-88534175D01*
X114900126Y-88359662D01*
X114900126Y-89135941D01*
X114208095Y-89460894D01*
X113528099Y-89852043D01*
X113528099Y-90237173D01*
X114900126Y-90237173D01*
X114900126Y-90977346D01*
X111229351Y-90977346D01*
X111187228Y-90742657D01*
X111157140Y-90477880D01*
X111139087Y-90225138D01*
X111133072Y-90014520D01*
X111133069Y-90014520D01*
X111133069Y-90014520D01*
G37*
X111133069Y-90014520D02*
X111915368Y-89539125D01*
X111776962Y-90014520D01*
X111782977Y-90116820D01*
X111795012Y-90237173D01*
X112914297Y-90237173D01*
X112914297Y-90074696D01*
X112769873Y-89527089D01*
X112348637Y-89358594D01*
X112348640Y-89358594D01*
X111915368Y-89539125D01*
X111133069Y-90014520D01*
X111205281Y-89436824D01*
X111427935Y-88991517D01*
X111813065Y-88708687D01*
X112354654Y-88606386D01*
X112944386Y-88738775D01*
X113347569Y-89178065D01*
X113696593Y-88961429D01*
X114093759Y-88738775D01*
X114508978Y-88534175D01*
X114900126Y-88359662D01*
X114900126Y-89135941D01*
X114208095Y-89460894D01*
X113528099Y-89852043D01*
X113528099Y-90237173D01*
X114900126Y-90237173D01*
X114900126Y-90977346D01*
X111229351Y-90977346D01*
X111187228Y-90742657D01*
X111157140Y-90477880D01*
X111139087Y-90225138D01*
X111133072Y-90014520D01*
X111133069Y-90014520D01*
D10*
X111133069Y-90014520D02*
X111915368Y-89539125D01*
X111915368Y-89539125D02*
X111776962Y-90014520D01*
X111776962Y-90014520D02*
X111782977Y-90116820D01*
X111782977Y-90116820D02*
X111795012Y-90237173D01*
X111795012Y-90237173D02*
X112914297Y-90237173D01*
X112914297Y-90237173D02*
X112914297Y-90074696D01*
X112914297Y-90074696D02*
X112769873Y-89527089D01*
X112769873Y-89527089D02*
X112348637Y-89358594D01*
X112348637Y-89358594D02*
X112348640Y-89358594D01*
X112348640Y-89358594D02*
X111915368Y-89539125D01*
X111915368Y-89539125D02*
X111133069Y-90014520D01*
X111133069Y-90014520D02*
X111205281Y-89436824D01*
X111205281Y-89436824D02*
X111427935Y-88991517D01*
X111427935Y-88991517D02*
X111813065Y-88708687D01*
X111813065Y-88708687D02*
X112354654Y-88606386D01*
X112354654Y-88606386D02*
X112944386Y-88738775D01*
X112944386Y-88738775D02*
X113347569Y-89178065D01*
X113347569Y-89178065D02*
X113696593Y-88961429D01*
X113696593Y-88961429D02*
X114093759Y-88738775D01*
X114093759Y-88738775D02*
X114508978Y-88534175D01*
X114508978Y-88534175D02*
X114900126Y-88359662D01*
X114900126Y-88359662D02*
X114900126Y-89135941D01*
X114900126Y-89135941D02*
X114208095Y-89460894D01*
X114208095Y-89460894D02*
X113528099Y-89852043D01*
X113528099Y-89852043D02*
X113528099Y-90237173D01*
X113528099Y-90237173D02*
X114900126Y-90237173D01*
X114900126Y-90237173D02*
X114900126Y-90977346D01*
X114900126Y-90977346D02*
X111229351Y-90977346D01*
X111229351Y-90977346D02*
X111187228Y-90742657D01*
X111187228Y-90742657D02*
X111157140Y-90477880D01*
X111157140Y-90477880D02*
X111139087Y-90225138D01*
X111139087Y-90225138D02*
X111133072Y-90014520D01*
X111133072Y-90014520D02*
X111133069Y-90014520D01*
X82966000Y-76750000D02*
G75*
G03X82966000Y-76750000I-966000J0D01*
G01*
X85506000Y-76750000D02*
G75*
G03X85506000Y-76750000I-966000J0D01*
G01*
X88046000Y-76750000D02*
G75*
G03X88046000Y-76750000I-966000J0D01*
G01*
X90586000Y-76750000D02*
G75*
G03X90586000Y-76750000I-966000J0D01*
G01*
X93126000Y-76750000D02*
G75*
G03X93126000Y-76750000I-966000J0D01*
G01*
X95666000Y-76750000D02*
G75*
G03X95666000Y-76750000I-966000J0D01*
G01*
X98206000Y-76750000D02*
G75*
G03X98206000Y-76750000I-966000J0D01*
G01*
X100746000Y-76750000D02*
G75*
G03X100746000Y-76750000I-966000J0D01*
G01*
X103286000Y-76750000D02*
G75*
G03X103286000Y-76750000I-966000J0D01*
G01*
X105826000Y-76750000D02*
G75*
G03X105826000Y-76750000I-966000J0D01*
G01*
X79966000Y-102500000D02*
G75*
G03X79966000Y-102500000I-966000J0D01*
G01*
X79966000Y-99960000D02*
G75*
G03X79966000Y-99960000I-966000J0D01*
G01*
X79966000Y-97420000D02*
G75*
G03X79966000Y-97420000I-966000J0D01*
G01*
X79966000Y-94880000D02*
G75*
G03X79966000Y-94880000I-966000J0D01*
G01*
X79966000Y-92340000D02*
G75*
G03X79966000Y-92340000I-966000J0D01*
G01*
X79966000Y-89800000D02*
G75*
G03X79966000Y-89800000I-966000J0D01*
G01*
X79966000Y-87260000D02*
G75*
G03X79966000Y-87260000I-966000J0D01*
G01*
X79966000Y-84720000D02*
G75*
G03X79966000Y-84720000I-966000J0D01*
G01*
X79966000Y-82180000D02*
G75*
G03X79966000Y-82180000I-966000J0D01*
G01*
X79966000Y-79640000D02*
G75*
G03X79966000Y-79640000I-966000J0D01*
G01*
X79007500Y-127000000D02*
G75*
G03X79007500Y-127000000I-1537500J0D01*
G01*
X106947500Y-127000000D02*
G75*
G03X106947500Y-127000000I-1537500J0D01*
G01*
X122187500Y-76200000D02*
G75*
G03X122187500Y-76200000I-1537500J0D01*
G01*
X71113600Y-129230000D02*
X71113600Y-129230000D01*
X69486400Y-129230000D02*
X69486400Y-129230000D01*
X71113600Y-129230000D02*
G75*
G03X69486400Y-129230000I-813600J0D01*
G01*
X69486400Y-129230000D02*
G75*
G03X71113600Y-129230000I813600J0D01*
G01*
X73653600Y-126690000D02*
X73653600Y-126690000D01*
X72026400Y-126690000D02*
X72026400Y-126690000D01*
X73653600Y-126690000D02*
G75*
G03X72026400Y-126690000I-813600J0D01*
G01*
X72026400Y-126690000D02*
G75*
G03X73653600Y-126690000I813600J0D01*
G01*
X71113600Y-126690000D02*
X71113600Y-126690000D01*
X69486400Y-126690000D02*
X69486400Y-126690000D01*
X71113600Y-126690000D02*
G75*
G03X69486400Y-126690000I-813600J0D01*
G01*
X69486400Y-126690000D02*
G75*
G03X71113600Y-126690000I813600J0D01*
G01*
X73653600Y-124150000D02*
X73653600Y-124150000D01*
X72026400Y-124150000D02*
X72026400Y-124150000D01*
X73653600Y-124150000D02*
G75*
G03X72026400Y-124150000I-813600J0D01*
G01*
X72026400Y-124150000D02*
G75*
G03X73653600Y-124150000I813600J0D01*
G01*
X71113600Y-124150000D02*
X71113600Y-124150000D01*
X69486400Y-124150000D02*
X69486400Y-124150000D01*
X71113600Y-124150000D02*
G75*
G03X69486400Y-124150000I-813600J0D01*
G01*
X69486400Y-124150000D02*
G75*
G03X71113600Y-124150000I813600J0D01*
G01*
X73653600Y-121610000D02*
X73653600Y-121610000D01*
X72026400Y-121610000D02*
X72026400Y-121610000D01*
X73653600Y-121610000D02*
G75*
G03X72026400Y-121610000I-813600J0D01*
G01*
X72026400Y-121610000D02*
G75*
G03X73653600Y-121610000I813600J0D01*
G01*
X71113600Y-121610000D02*
X71113600Y-121610000D01*
X69486400Y-121610000D02*
X69486400Y-121610000D01*
X71113600Y-121610000D02*
G75*
G03X69486400Y-121610000I-813600J0D01*
G01*
X69486400Y-121610000D02*
G75*
G03X71113600Y-121610000I813600J0D01*
G01*
X73653600Y-119070000D02*
X73653600Y-119070000D01*
X72026400Y-119070000D02*
X72026400Y-119070000D01*
X73653600Y-119070000D02*
G75*
G03X72026400Y-119070000I-813600J0D01*
G01*
X72026400Y-119070000D02*
G75*
G03X73653600Y-119070000I813600J0D01*
G01*
X71113600Y-119070000D02*
X71113600Y-119070000D01*
X69486400Y-119070000D02*
X69486400Y-119070000D01*
X71113600Y-119070000D02*
G75*
G03X69486400Y-119070000I-813600J0D01*
G01*
X69486400Y-119070000D02*
G75*
G03X71113600Y-119070000I813600J0D01*
G01*
X73653600Y-116530000D02*
X73653600Y-116530000D01*
X72026400Y-116530000D02*
X72026400Y-116530000D01*
X73653600Y-116530000D02*
G75*
G03X72026400Y-116530000I-813600J0D01*
G01*
X72026400Y-116530000D02*
G75*
G03X73653600Y-116530000I813600J0D01*
G01*
X71113600Y-116530000D02*
X71113600Y-116530000D01*
X69486400Y-116530000D02*
X69486400Y-116530000D01*
X71113600Y-116530000D02*
G75*
G03X69486400Y-116530000I-813600J0D01*
G01*
X69486400Y-116530000D02*
G75*
G03X71113600Y-116530000I813600J0D01*
G01*
X73653600Y-113990000D02*
X73653600Y-113990000D01*
X72026400Y-113990000D02*
X72026400Y-113990000D01*
X73653600Y-113990000D02*
G75*
G03X72026400Y-113990000I-813600J0D01*
G01*
X72026400Y-113990000D02*
G75*
G03X73653600Y-113990000I813600J0D01*
G01*
X71113600Y-113990000D02*
X71113600Y-113990000D01*
X69486400Y-113990000D02*
X69486400Y-113990000D01*
X71113600Y-113990000D02*
G75*
G03X69486400Y-113990000I-813600J0D01*
G01*
X69486400Y-113990000D02*
G75*
G03X71113600Y-113990000I813600J0D01*
G01*
X73653600Y-111450000D02*
X73653600Y-111450000D01*
X72026400Y-111450000D02*
X72026400Y-111450000D01*
X73653600Y-111450000D02*
G75*
G03X72026400Y-111450000I-813600J0D01*
G01*
X72026400Y-111450000D02*
G75*
G03X73653600Y-111450000I813600J0D01*
G01*
X71113600Y-111450000D02*
X71113600Y-111450000D01*
X69486400Y-111450000D02*
X69486400Y-111450000D01*
X71113600Y-111450000D02*
G75*
G03X69486400Y-111450000I-813600J0D01*
G01*
X69486400Y-111450000D02*
G75*
G03X71113600Y-111450000I813600J0D01*
G01*
X73653600Y-108910000D02*
X73653600Y-108910000D01*
X72026400Y-108910000D02*
X72026400Y-108910000D01*
X73653600Y-108910000D02*
G75*
G03X72026400Y-108910000I-813600J0D01*
G01*
X72026400Y-108910000D02*
G75*
G03X73653600Y-108910000I813600J0D01*
G01*
X71113600Y-108910000D02*
X71113600Y-108910000D01*
X69486400Y-108910000D02*
X69486400Y-108910000D01*
X71113600Y-108910000D02*
G75*
G03X69486400Y-108910000I-813600J0D01*
G01*
X69486400Y-108910000D02*
G75*
G03X71113600Y-108910000I813600J0D01*
G01*
X73653600Y-106370000D02*
X73653600Y-106370000D01*
X72026400Y-106370000D02*
X72026400Y-106370000D01*
X73653600Y-106370000D02*
G75*
G03X72026400Y-106370000I-813600J0D01*
G01*
X72026400Y-106370000D02*
G75*
G03X73653600Y-106370000I813600J0D01*
G01*
X71113600Y-106370000D02*
X71113600Y-106370000D01*
X69486400Y-106370000D02*
X69486400Y-106370000D01*
X71113600Y-106370000D02*
G75*
G03X69486400Y-106370000I-813600J0D01*
G01*
X69486400Y-106370000D02*
G75*
G03X71113600Y-106370000I813600J0D01*
G01*
X73653600Y-103830000D02*
X73653600Y-103830000D01*
X72026400Y-103830000D02*
X72026400Y-103830000D01*
X73653600Y-103830000D02*
G75*
G03X72026400Y-103830000I-813600J0D01*
G01*
X72026400Y-103830000D02*
G75*
G03X73653600Y-103830000I813600J0D01*
G01*
X71113600Y-103830000D02*
X71113600Y-103830000D01*
X69486400Y-103830000D02*
X69486400Y-103830000D01*
X71113600Y-103830000D02*
G75*
G03X69486400Y-103830000I-813600J0D01*
G01*
X69486400Y-103830000D02*
G75*
G03X71113600Y-103830000I813600J0D01*
G01*
X73653600Y-101290000D02*
X73653600Y-101290000D01*
X72026400Y-101290000D02*
X72026400Y-101290000D01*
X73653600Y-101290000D02*
G75*
G03X72026400Y-101290000I-813600J0D01*
G01*
X72026400Y-101290000D02*
G75*
G03X73653600Y-101290000I813600J0D01*
G01*
X71113600Y-101290000D02*
X71113600Y-101290000D01*
X69486400Y-101290000D02*
X69486400Y-101290000D01*
X71113600Y-101290000D02*
G75*
G03X69486400Y-101290000I-813600J0D01*
G01*
X69486400Y-101290000D02*
G75*
G03X71113600Y-101290000I813600J0D01*
G01*
X73653600Y-98750000D02*
X73653600Y-98750000D01*
X72026400Y-98750000D02*
X72026400Y-98750000D01*
X73653600Y-98750000D02*
G75*
G03X72026400Y-98750000I-813600J0D01*
G01*
X72026400Y-98750000D02*
G75*
G03X73653600Y-98750000I813600J0D01*
G01*
X71113600Y-98750000D02*
X71113600Y-98750000D01*
X69486400Y-98750000D02*
X69486400Y-98750000D01*
X71113600Y-98750000D02*
G75*
G03X69486400Y-98750000I-813600J0D01*
G01*
X69486400Y-98750000D02*
G75*
G03X71113600Y-98750000I813600J0D01*
G01*
X73653600Y-96210000D02*
X73653600Y-96210000D01*
X72026400Y-96210000D02*
X72026400Y-96210000D01*
X73653600Y-96210000D02*
G75*
G03X72026400Y-96210000I-813600J0D01*
G01*
X72026400Y-96210000D02*
G75*
G03X73653600Y-96210000I813600J0D01*
G01*
X71113600Y-96210000D02*
X71113600Y-96210000D01*
X69486400Y-96210000D02*
X69486400Y-96210000D01*
X71113600Y-96210000D02*
G75*
G03X69486400Y-96210000I-813600J0D01*
G01*
X69486400Y-96210000D02*
G75*
G03X71113600Y-96210000I813600J0D01*
G01*
X73653600Y-93670000D02*
X73653600Y-93670000D01*
X72026400Y-93670000D02*
X72026400Y-93670000D01*
X73653600Y-93670000D02*
G75*
G03X72026400Y-93670000I-813600J0D01*
G01*
X72026400Y-93670000D02*
G75*
G03X73653600Y-93670000I813600J0D01*
G01*
X71113600Y-93670000D02*
X71113600Y-93670000D01*
X69486400Y-93670000D02*
X69486400Y-93670000D01*
X71113600Y-93670000D02*
G75*
G03X69486400Y-93670000I-813600J0D01*
G01*
X69486400Y-93670000D02*
G75*
G03X71113600Y-93670000I813600J0D01*
G01*
X73653600Y-91130000D02*
X73653600Y-91130000D01*
X72026400Y-91130000D02*
X72026400Y-91130000D01*
X73653600Y-91130000D02*
G75*
G03X72026400Y-91130000I-813600J0D01*
G01*
X72026400Y-91130000D02*
G75*
G03X73653600Y-91130000I813600J0D01*
G01*
X71113600Y-91130000D02*
X71113600Y-91130000D01*
X69486400Y-91130000D02*
X69486400Y-91130000D01*
X71113600Y-91130000D02*
G75*
G03X69486400Y-91130000I-813600J0D01*
G01*
X69486400Y-91130000D02*
G75*
G03X71113600Y-91130000I813600J0D01*
G01*
X73653600Y-88590000D02*
X73653600Y-88590000D01*
X72026400Y-88590000D02*
X72026400Y-88590000D01*
X73653600Y-88590000D02*
G75*
G03X72026400Y-88590000I-813600J0D01*
G01*
X72026400Y-88590000D02*
G75*
G03X73653600Y-88590000I813600J0D01*
G01*
X71113600Y-88590000D02*
X71113600Y-88590000D01*
X69486400Y-88590000D02*
X69486400Y-88590000D01*
X71113600Y-88590000D02*
G75*
G03X69486400Y-88590000I-813600J0D01*
G01*
X69486400Y-88590000D02*
G75*
G03X71113600Y-88590000I813600J0D01*
G01*
X73653600Y-86050000D02*
X73653600Y-86050000D01*
X72026400Y-86050000D02*
X72026400Y-86050000D01*
X73653600Y-86050000D02*
G75*
G03X72026400Y-86050000I-813600J0D01*
G01*
X72026400Y-86050000D02*
G75*
G03X73653600Y-86050000I813600J0D01*
G01*
X71113600Y-86050000D02*
X71113600Y-86050000D01*
X69486400Y-86050000D02*
X69486400Y-86050000D01*
X71113600Y-86050000D02*
G75*
G03X69486400Y-86050000I-813600J0D01*
G01*
X69486400Y-86050000D02*
G75*
G03X71113600Y-86050000I813600J0D01*
G01*
X73653600Y-83510000D02*
X73653600Y-83510000D01*
X72026400Y-83510000D02*
X72026400Y-83510000D01*
X73653600Y-83510000D02*
G75*
G03X72026400Y-83510000I-813600J0D01*
G01*
X72026400Y-83510000D02*
G75*
G03X73653600Y-83510000I813600J0D01*
G01*
X71113600Y-83510000D02*
X71113600Y-83510000D01*
X69486400Y-83510000D02*
X69486400Y-83510000D01*
X71113600Y-83510000D02*
G75*
G03X69486400Y-83510000I-813600J0D01*
G01*
X69486400Y-83510000D02*
G75*
G03X71113600Y-83510000I813600J0D01*
G01*
X73653600Y-80970000D02*
X73653600Y-80970000D01*
X72026400Y-80970000D02*
X72026400Y-80970000D01*
X73653600Y-80970000D02*
G75*
G03X72026400Y-80970000I-813600J0D01*
G01*
X72026400Y-80970000D02*
G75*
G03X73653600Y-80970000I813600J0D01*
G01*
X71113600Y-80970000D02*
X71113600Y-80970000D01*
X69486400Y-80970000D02*
X69486400Y-80970000D01*
X71113600Y-80970000D02*
G75*
G03X69486400Y-80970000I-813600J0D01*
G01*
X69486400Y-80970000D02*
G75*
G03X71113600Y-80970000I813600J0D01*
G01*
X105620430Y-134349630D02*
X105620430Y-132650370D01*
X103919570Y-134349630D02*
X103919570Y-132650370D01*
X105620430Y-132650370D02*
G75*
G03X103919570Y-132650370I-850430J0D01*
G01*
X103919570Y-134349630D02*
G75*
G03X105620430Y-134349630I850430J0D01*
G01*
X103080430Y-134349630D02*
X103080430Y-132650370D01*
X101379570Y-134349630D02*
X101379570Y-132650370D01*
X103080430Y-132650370D02*
G75*
G03X101379570Y-132650370I-850430J0D01*
G01*
X101379570Y-134349630D02*
G75*
G03X103080430Y-134349630I850430J0D01*
G01*
X110297700Y-134870000D02*
G75*
G03X110297700Y-134870000I-597700J0D01*
G01*
X112837700Y-134870000D02*
G75*
G03X112837700Y-134870000I-597700J0D01*
G01*
X112837700Y-132330000D02*
G75*
G03X112837700Y-132330000I-597700J0D01*
G01*
X110297700Y-132330000D02*
G75*
G03X110297700Y-132330000I-597700J0D01*
G01*
X111618500Y-133600000D02*
G75*
G03X111618500Y-133600000I-648500J0D01*
G01*
X99660430Y-134349630D02*
X99660430Y-132650370D01*
X97959570Y-134349630D02*
X97959570Y-132650370D01*
X99660430Y-132650370D02*
G75*
G03X97959570Y-132650370I-850430J0D01*
G01*
X97959570Y-134349630D02*
G75*
G03X99660430Y-134349630I850430J0D01*
G01*
X97120430Y-134349630D02*
X97120430Y-132650370D01*
X95419570Y-134349630D02*
X95419570Y-132650370D01*
X97120430Y-132650370D02*
G75*
G03X95419570Y-132650370I-850430J0D01*
G01*
X95419570Y-134349630D02*
G75*
G03X97120430Y-134349630I850430J0D01*
G01*
X94580430Y-134349630D02*
X94580430Y-132650370D01*
X92879570Y-134349630D02*
X92879570Y-132650370D01*
X94580430Y-132650370D02*
G75*
G03X92879570Y-132650370I-850430J0D01*
G01*
X92879570Y-134349630D02*
G75*
G03X94580430Y-134349630I850430J0D01*
G01*
X92040430Y-134349630D02*
X92040430Y-132650370D01*
X90339570Y-134349630D02*
X90339570Y-132650370D01*
X92040430Y-132650370D02*
G75*
G03X90339570Y-132650370I-850430J0D01*
G01*
X90339570Y-134349630D02*
G75*
G03X92040430Y-134349630I850430J0D01*
G01*
X105716000Y-105500000D02*
G75*
G03X105716000Y-105500000I-966000J0D01*
G01*
X103176000Y-105500000D02*
G75*
G03X103176000Y-105500000I-966000J0D01*
G01*
X100636000Y-105500000D02*
G75*
G03X100636000Y-105500000I-966000J0D01*
G01*
X98096000Y-105500000D02*
G75*
G03X98096000Y-105500000I-966000J0D01*
G01*
X95556000Y-105500000D02*
G75*
G03X95556000Y-105500000I-966000J0D01*
G01*
X93016000Y-105500000D02*
G75*
G03X93016000Y-105500000I-966000J0D01*
G01*
X90476000Y-105500000D02*
G75*
G03X90476000Y-105500000I-966000J0D01*
G01*
X87936000Y-105500000D02*
G75*
G03X87936000Y-105500000I-966000J0D01*
G01*
X85396000Y-105500000D02*
G75*
G03X85396000Y-105500000I-966000J0D01*
G01*
X82856000Y-105500000D02*
G75*
G03X82856000Y-105500000I-966000J0D01*
G01*
X94434000Y-128146000D02*
X94434000Y-128654000D01*
X96366000Y-128146000D02*
X96366000Y-128654000D01*
X94434000Y-128654000D02*
G75*
G03X96366000Y-128654000I966000J0D01*
G01*
X96366000Y-128146000D02*
G75*
G03X94434000Y-128146000I-966000J0D01*
G01*
X96974000Y-128146000D02*
X96974000Y-128654000D01*
X98906000Y-128146000D02*
X98906000Y-128654000D01*
X96974000Y-128654000D02*
G75*
G03X98906000Y-128654000I966000J0D01*
G01*
X98906000Y-128146000D02*
G75*
G03X96974000Y-128146000I-966000J0D01*
G01*
X91894000Y-128146000D02*
X91894000Y-128654000D01*
X93826000Y-128146000D02*
X93826000Y-128654000D01*
X91894000Y-128654000D02*
G75*
G03X93826000Y-128654000I966000J0D01*
G01*
X93826000Y-128146000D02*
G75*
G03X91894000Y-128146000I-966000J0D01*
G01*
D14*
X72506667Y-133782381D02*
X72506667Y-134496667D01*
X72459047Y-134639524D01*
X72363809Y-134734762D01*
X72220952Y-134782381D01*
X72125714Y-134782381D01*
X73506667Y-134782381D02*
X72935238Y-134782381D01*
X73220952Y-134782381D02*
X73220952Y-133782381D01*
X73125714Y-133925238D01*
X73030476Y-134020476D01*
X72935238Y-134068095D01*
X115288095Y-117558381D02*
X115288095Y-118367905D01*
X115335714Y-118463143D01*
X115383333Y-118510762D01*
X115478571Y-118558381D01*
X115669048Y-118558381D01*
X115764286Y-118510762D01*
X115811905Y-118463143D01*
X115859524Y-118367905D01*
X115859524Y-117558381D01*
X116859524Y-118558381D02*
X116288095Y-118558381D01*
X116573809Y-118558381D02*
X116573809Y-117558381D01*
X116478571Y-117701238D01*
X116383333Y-117796476D01*
X116288095Y-117844095D01*
X114637524Y-114208667D02*
X115113715Y-114208667D01*
X114542286Y-114494381D02*
X114875619Y-113494381D01*
X115208953Y-114494381D01*
X115494667Y-113589619D02*
X115542286Y-113542000D01*
X115637524Y-113494381D01*
X115875620Y-113494381D01*
X115970858Y-113542000D01*
X116018477Y-113589619D01*
X116066096Y-113684857D01*
X116066096Y-113780095D01*
X116018477Y-113922952D01*
X115447048Y-114494381D01*
X116066096Y-114494381D01*
X116447048Y-113589619D02*
X116494667Y-113542000D01*
X116589905Y-113494381D01*
X116828001Y-113494381D01*
X116923239Y-113542000D01*
X116970858Y-113589619D01*
X117018477Y-113684857D01*
X117018477Y-113780095D01*
X116970858Y-113922952D01*
X116399429Y-114494381D01*
X117018477Y-114494381D01*
X117637524Y-113494381D02*
X117732763Y-113494381D01*
X117828001Y-113542000D01*
X117875620Y-113589619D01*
X117923239Y-113684857D01*
X117970858Y-113875333D01*
X117970858Y-114113429D01*
X117923239Y-114303905D01*
X117875620Y-114399143D01*
X117828001Y-114446762D01*
X117732763Y-114494381D01*
X117637524Y-114494381D01*
X117542286Y-114446762D01*
X117494667Y-114399143D01*
X117447048Y-114303905D01*
X117399429Y-114113429D01*
X117399429Y-113875333D01*
X117447048Y-113684857D01*
X117494667Y-113589619D01*
X117542286Y-113542000D01*
X117637524Y-113494381D01*
X118589905Y-113494381D02*
X118685144Y-113494381D01*
X118780382Y-113542000D01*
X118828001Y-113589619D01*
X118875620Y-113684857D01*
X118923239Y-113875333D01*
X118923239Y-114113429D01*
X118875620Y-114303905D01*
X118828001Y-114399143D01*
X118780382Y-114446762D01*
X118685144Y-114494381D01*
X118589905Y-114494381D01*
X118494667Y-114446762D01*
X118447048Y-114399143D01*
X118399429Y-114303905D01*
X118351810Y-114113429D01*
X118351810Y-113875333D01*
X118399429Y-113684857D01*
X118447048Y-113589619D01*
X118494667Y-113542000D01*
X118589905Y-113494381D01*
X119351810Y-114113429D02*
X120113715Y-114113429D01*
X120542286Y-114208667D02*
X121018477Y-114208667D01*
X120447048Y-114494381D02*
X120780381Y-113494381D01*
X121113715Y-114494381D01*
X99728931Y-122884133D02*
X99728931Y-123217467D01*
X100252741Y-123217467D02*
X99252741Y-123217467D01*
X99252741Y-122741276D01*
X100252741Y-121836514D02*
X100252741Y-122407943D01*
X100252741Y-122122229D02*
X99252741Y-122122229D01*
X99395598Y-122217467D01*
X99490836Y-122312705D01*
X99538455Y-122407943D01*
D19*
X109152381Y-116140474D02*
X109176190Y-116069045D01*
X109176190Y-115949998D01*
X109152381Y-115902379D01*
X109128571Y-115878569D01*
X109080952Y-115854760D01*
X109033333Y-115854760D01*
X108985714Y-115878569D01*
X108961905Y-115902379D01*
X108938095Y-115949998D01*
X108914286Y-116045236D01*
X108890476Y-116092855D01*
X108866667Y-116116664D01*
X108819048Y-116140474D01*
X108771429Y-116140474D01*
X108723810Y-116116664D01*
X108700000Y-116092855D01*
X108676190Y-116045236D01*
X108676190Y-115926188D01*
X108700000Y-115854760D01*
X109152381Y-115449998D02*
X109176190Y-115497617D01*
X109176190Y-115592855D01*
X109152381Y-115640474D01*
X109104762Y-115664284D01*
X108914286Y-115664284D01*
X108866667Y-115640474D01*
X108842857Y-115592855D01*
X108842857Y-115497617D01*
X108866667Y-115449998D01*
X108914286Y-115426189D01*
X108961905Y-115426189D01*
X109009524Y-115664284D01*
X109176190Y-115140475D02*
X109152381Y-115188094D01*
X109104762Y-115211903D01*
X108676190Y-115211903D01*
X108842857Y-115021427D02*
X108842857Y-114830951D01*
X109176190Y-114949998D02*
X108747619Y-114949998D01*
X108700000Y-114926189D01*
X108676190Y-114878570D01*
X108676190Y-114830951D01*
X108985714Y-114664284D02*
X108985714Y-114283332D01*
X109152381Y-114069046D02*
X109176190Y-113997617D01*
X109176190Y-113878570D01*
X109152381Y-113830951D01*
X109128571Y-113807141D01*
X109080952Y-113783332D01*
X109033333Y-113783332D01*
X108985714Y-113807141D01*
X108961905Y-113830951D01*
X108938095Y-113878570D01*
X108914286Y-113973808D01*
X108890476Y-114021427D01*
X108866667Y-114045236D01*
X108819048Y-114069046D01*
X108771429Y-114069046D01*
X108723810Y-114045236D01*
X108700000Y-114021427D01*
X108676190Y-113973808D01*
X108676190Y-113854760D01*
X108700000Y-113783332D01*
X108842857Y-113640475D02*
X108842857Y-113449999D01*
X108676190Y-113569046D02*
X109104762Y-113569046D01*
X109152381Y-113545237D01*
X109176190Y-113497618D01*
X109176190Y-113449999D01*
X109176190Y-113069047D02*
X108914286Y-113069047D01*
X108866667Y-113092856D01*
X108842857Y-113140475D01*
X108842857Y-113235713D01*
X108866667Y-113283332D01*
X109152381Y-113069047D02*
X109176190Y-113116666D01*
X109176190Y-113235713D01*
X109152381Y-113283332D01*
X109104762Y-113307142D01*
X109057143Y-113307142D01*
X109009524Y-113283332D01*
X108985714Y-113235713D01*
X108985714Y-113116666D01*
X108961905Y-113069047D01*
X109176190Y-112830951D02*
X108842857Y-112830951D01*
X108938095Y-112830951D02*
X108890476Y-112807142D01*
X108866667Y-112783332D01*
X108842857Y-112735713D01*
X108842857Y-112688094D01*
X108842857Y-112592856D02*
X108842857Y-112402380D01*
X108676190Y-112521427D02*
X109104762Y-112521427D01*
X109152381Y-112497618D01*
X109176190Y-112449999D01*
X109176190Y-112402380D01*
X109152381Y-111878571D02*
X109176190Y-111807142D01*
X109176190Y-111688095D01*
X109152381Y-111640476D01*
X109128571Y-111616666D01*
X109080952Y-111592857D01*
X109033333Y-111592857D01*
X108985714Y-111616666D01*
X108961905Y-111640476D01*
X108938095Y-111688095D01*
X108914286Y-111783333D01*
X108890476Y-111830952D01*
X108866667Y-111854761D01*
X108819048Y-111878571D01*
X108771429Y-111878571D01*
X108723810Y-111854761D01*
X108700000Y-111830952D01*
X108676190Y-111783333D01*
X108676190Y-111664285D01*
X108700000Y-111592857D01*
X109152381Y-111188095D02*
X109176190Y-111235714D01*
X109176190Y-111330952D01*
X109152381Y-111378571D01*
X109104762Y-111402381D01*
X108914286Y-111402381D01*
X108866667Y-111378571D01*
X108842857Y-111330952D01*
X108842857Y-111235714D01*
X108866667Y-111188095D01*
X108914286Y-111164286D01*
X108961905Y-111164286D01*
X109009524Y-111402381D01*
X109176190Y-110878572D02*
X109152381Y-110926191D01*
X109104762Y-110950000D01*
X108676190Y-110950000D01*
X109152381Y-110497619D02*
X109176190Y-110545238D01*
X109176190Y-110640476D01*
X109152381Y-110688095D01*
X109104762Y-110711905D01*
X108914286Y-110711905D01*
X108866667Y-110688095D01*
X108842857Y-110640476D01*
X108842857Y-110545238D01*
X108866667Y-110497619D01*
X108914286Y-110473810D01*
X108961905Y-110473810D01*
X109009524Y-110711905D01*
X109152381Y-110045239D02*
X109176190Y-110092858D01*
X109176190Y-110188096D01*
X109152381Y-110235715D01*
X109128571Y-110259524D01*
X109080952Y-110283334D01*
X108938095Y-110283334D01*
X108890476Y-110259524D01*
X108866667Y-110235715D01*
X108842857Y-110188096D01*
X108842857Y-110092858D01*
X108866667Y-110045239D01*
X108842857Y-109902382D02*
X108842857Y-109711906D01*
X108676190Y-109830953D02*
X109104762Y-109830953D01*
X109152381Y-109807144D01*
X109176190Y-109759525D01*
X109176190Y-109711906D01*
M02*
