M48
;DRILL file {KiCad 4.0.2-1.fc23-product} date Mon 23 May 2016 18:37:04 BST
;FORMAT={-:-/ absolute / metric / decimal}
FMAT,2
METRIC,TZ
T1C0.400
T2C0.798
T3C1.016
T4C1.143
T5C1.199
%
G90
G05
M71
T1
X75.2Y-112.9
X75.9Y-119.3
X76.1Y-117.8
X76.5Y-121.
X78.Y-130.1
X78.5Y-124.5
X80.Y-130.1
X82.Y-130.1
X83.Y-116.75
X84.Y-130.1
X84.5Y-123.75
X86.Y-130.
X110.25Y-114.95
X123.05Y-119.85
T2
X109.7Y-132.33
X109.7Y-134.87
X110.97Y-133.6
X112.24Y-132.33
X112.24Y-134.87
T3
X70.3Y-80.97
X70.3Y-83.51
X70.3Y-86.05
X70.3Y-88.59
X70.3Y-91.13
X70.3Y-93.67
X70.3Y-96.21
X70.3Y-98.75
X70.3Y-101.29
X70.3Y-103.83
X70.3Y-106.37
X70.3Y-108.91
X70.3Y-111.45
X70.3Y-113.99
X70.3Y-116.53
X70.3Y-119.07
X70.3Y-121.61
X70.3Y-124.15
X70.3Y-126.69
X70.3Y-129.23
X72.84Y-80.97
X72.84Y-83.51
X72.84Y-86.05
X72.84Y-88.59
X72.84Y-91.13
X72.84Y-93.67
X72.84Y-96.21
X72.84Y-98.75
X72.84Y-101.29
X72.84Y-103.83
X72.84Y-106.37
X72.84Y-108.91
X72.84Y-111.45
X72.84Y-113.99
X72.84Y-116.53
X72.84Y-119.07
X72.84Y-121.61
X72.84Y-124.15
X72.84Y-126.69
X72.84Y-129.23
X79.Y-79.64
X79.Y-82.18
X79.Y-84.72
X79.Y-87.26
X79.Y-89.8
X79.Y-92.34
X79.Y-94.88
X79.Y-97.42
X79.Y-99.96
X79.Y-102.5
X81.89Y-105.5
X81.9Y-79.7
X81.9Y-82.24
X81.9Y-84.78
X81.9Y-87.32
X81.9Y-89.86
X81.9Y-92.4
X81.9Y-94.94
X81.9Y-97.48
X81.9Y-100.02
X81.9Y-102.56
X82.Y-76.75
X84.43Y-105.5
X84.44Y-79.7
X84.44Y-82.24
X84.44Y-84.78
X84.44Y-87.32
X84.44Y-89.86
X84.44Y-92.4
X84.44Y-94.94
X84.44Y-97.48
X84.44Y-100.02
X84.44Y-102.56
X84.54Y-76.75
X86.97Y-105.5
X86.98Y-79.7
X86.98Y-82.24
X86.98Y-84.78
X86.98Y-87.32
X86.98Y-89.86
X86.98Y-92.4
X86.98Y-94.94
X86.98Y-97.48
X86.98Y-100.02
X86.98Y-102.56
X87.08Y-76.75
X89.51Y-105.5
X89.52Y-79.7
X89.52Y-82.24
X89.52Y-84.78
X89.52Y-87.32
X89.52Y-89.86
X89.52Y-92.4
X89.52Y-94.94
X89.52Y-97.48
X89.52Y-100.02
X89.52Y-102.56
X89.62Y-76.75
X92.05Y-105.5
X92.06Y-79.7
X92.06Y-82.24
X92.06Y-84.78
X92.06Y-87.32
X92.06Y-89.86
X92.06Y-92.4
X92.06Y-94.94
X92.06Y-97.48
X92.06Y-100.02
X92.06Y-102.56
X92.16Y-76.75
X94.59Y-105.5
X94.6Y-79.7
X94.6Y-82.24
X94.6Y-84.78
X94.6Y-87.32
X94.6Y-89.86
X94.6Y-92.4
X94.6Y-94.94
X94.6Y-97.48
X94.6Y-100.02
X94.6Y-102.56
X94.7Y-76.75
X97.13Y-105.5
X97.14Y-79.7
X97.14Y-82.24
X97.14Y-84.78
X97.14Y-87.32
X97.14Y-89.86
X97.14Y-92.4
X97.14Y-94.94
X97.14Y-97.48
X97.14Y-100.02
X97.14Y-102.56
X97.24Y-76.75
X99.67Y-105.5
X99.68Y-79.7
X99.68Y-82.24
X99.68Y-84.78
X99.68Y-87.32
X99.68Y-89.86
X99.68Y-92.4
X99.68Y-94.94
X99.68Y-97.48
X99.68Y-100.02
X99.68Y-102.56
X99.78Y-76.75
X102.21Y-105.5
X102.22Y-79.7
X102.22Y-82.24
X102.22Y-84.78
X102.22Y-87.32
X102.22Y-89.86
X102.22Y-92.4
X102.22Y-94.94
X102.22Y-97.48
X102.22Y-100.02
X102.22Y-102.56
X102.32Y-76.75
X104.75Y-105.5
X104.76Y-79.7
X104.76Y-82.24
X104.76Y-84.78
X104.76Y-87.32
X104.76Y-89.86
X104.76Y-92.4
X104.76Y-94.94
X104.76Y-97.48
X104.76Y-100.02
X104.76Y-102.56
X104.86Y-76.75
T4
X92.86Y-128.4
X95.4Y-128.4
X97.94Y-128.4
T5
X91.19Y-133.5
X93.73Y-133.5
X96.27Y-133.5
X98.81Y-133.5
X102.23Y-133.5
X104.77Y-133.5
T0
M30
