G04 #@! TF.FileFunction,Other,Fab,Top*
%FSLAX46Y46*%
G04 Gerber Fmt 4.6, Leading zero omitted, Abs format (unit mm)*
G04 Created by KiCad (PCBNEW 4.0.2-1.fc23-product) date Mon 23 May 2016 18:37:12 BST*
%MOMM*%
G01*
G04 APERTURE LIST*
%ADD10C,0.100000*%
%ADD11C,0.150000*%
G04 APERTURE END LIST*
D10*
D11*
X72945000Y-76100000D02*
G75*
G03X72945000Y-76100000I-1375000J0D01*
G01*
X74670000Y-76100000D02*
G75*
G03X74670000Y-76100000I-3100000J0D01*
G01*
X121945000Y-134100000D02*
G75*
G03X121945000Y-134100000I-1375000J0D01*
G01*
X123670000Y-134100000D02*
G75*
G03X123670000Y-134100000I-3100000J0D01*
G01*
X72945000Y-134100000D02*
G75*
G03X72945000Y-134100000I-1375000J0D01*
G01*
X74670000Y-134100000D02*
G75*
G03X74670000Y-134100000I-3100000J0D01*
G01*
X79352381Y-86226192D02*
X78352381Y-86226192D01*
X78352381Y-85845239D01*
X78400000Y-85750001D01*
X78447619Y-85702382D01*
X78542857Y-85654763D01*
X78685714Y-85654763D01*
X78780952Y-85702382D01*
X78828571Y-85750001D01*
X78876190Y-85845239D01*
X78876190Y-86226192D01*
X79352381Y-85226192D02*
X78685714Y-85226192D01*
X78352381Y-85226192D02*
X78400000Y-85273811D01*
X78447619Y-85226192D01*
X78400000Y-85178573D01*
X78352381Y-85226192D01*
X78447619Y-85226192D01*
X78685714Y-84750002D02*
X79352381Y-84750002D01*
X78780952Y-84750002D02*
X78733333Y-84702383D01*
X78685714Y-84607145D01*
X78685714Y-84464287D01*
X78733333Y-84369049D01*
X78828571Y-84321430D01*
X79352381Y-84321430D01*
X79447619Y-84083335D02*
X79447619Y-83321430D01*
X79352381Y-83083335D02*
X78352381Y-83083335D01*
X78828571Y-83083335D02*
X78828571Y-82511906D01*
X79352381Y-82511906D02*
X78352381Y-82511906D01*
X79304762Y-81654763D02*
X79352381Y-81750001D01*
X79352381Y-81940478D01*
X79304762Y-82035716D01*
X79209524Y-82083335D01*
X78828571Y-82083335D01*
X78733333Y-82035716D01*
X78685714Y-81940478D01*
X78685714Y-81750001D01*
X78733333Y-81654763D01*
X78828571Y-81607144D01*
X78923810Y-81607144D01*
X79019048Y-82083335D01*
X79352381Y-80750001D02*
X78828571Y-80750001D01*
X78733333Y-80797620D01*
X78685714Y-80892858D01*
X78685714Y-81083335D01*
X78733333Y-81178573D01*
X79304762Y-80750001D02*
X79352381Y-80845239D01*
X79352381Y-81083335D01*
X79304762Y-81178573D01*
X79209524Y-81226192D01*
X79114286Y-81226192D01*
X79019048Y-81178573D01*
X78971429Y-81083335D01*
X78971429Y-80845239D01*
X78923810Y-80750001D01*
X79352381Y-79845239D02*
X78352381Y-79845239D01*
X79304762Y-79845239D02*
X79352381Y-79940477D01*
X79352381Y-80130954D01*
X79304762Y-80226192D01*
X79257143Y-80273811D01*
X79161905Y-80321430D01*
X78876190Y-80321430D01*
X78780952Y-80273811D01*
X78733333Y-80226192D01*
X78685714Y-80130954D01*
X78685714Y-79940477D01*
X78733333Y-79845239D01*
X79304762Y-78988096D02*
X79352381Y-79083334D01*
X79352381Y-79273811D01*
X79304762Y-79369049D01*
X79209524Y-79416668D01*
X78828571Y-79416668D01*
X78733333Y-79369049D01*
X78685714Y-79273811D01*
X78685714Y-79083334D01*
X78733333Y-78988096D01*
X78828571Y-78940477D01*
X78923810Y-78940477D01*
X79019048Y-79416668D01*
X79352381Y-78511906D02*
X78685714Y-78511906D01*
X78876190Y-78511906D02*
X78780952Y-78464287D01*
X78733333Y-78416668D01*
X78685714Y-78321430D01*
X78685714Y-78226191D01*
X79447619Y-78130953D02*
X79447619Y-77369048D01*
X79304762Y-77178572D02*
X79352381Y-77035715D01*
X79352381Y-76797619D01*
X79304762Y-76702381D01*
X79257143Y-76654762D01*
X79161905Y-76607143D01*
X79066667Y-76607143D01*
X78971429Y-76654762D01*
X78923810Y-76702381D01*
X78876190Y-76797619D01*
X78828571Y-76988096D01*
X78780952Y-77083334D01*
X78733333Y-77130953D01*
X78638095Y-77178572D01*
X78542857Y-77178572D01*
X78447619Y-77130953D01*
X78400000Y-77083334D01*
X78352381Y-76988096D01*
X78352381Y-76750000D01*
X78400000Y-76607143D01*
X78685714Y-76321429D02*
X78685714Y-75940477D01*
X78352381Y-76178572D02*
X79209524Y-76178572D01*
X79304762Y-76130953D01*
X79352381Y-76035715D01*
X79352381Y-75940477D01*
X79352381Y-75607143D02*
X78685714Y-75607143D01*
X78876190Y-75607143D02*
X78780952Y-75559524D01*
X78733333Y-75511905D01*
X78685714Y-75416667D01*
X78685714Y-75321428D01*
X79352381Y-74559523D02*
X78828571Y-74559523D01*
X78733333Y-74607142D01*
X78685714Y-74702380D01*
X78685714Y-74892857D01*
X78733333Y-74988095D01*
X79304762Y-74559523D02*
X79352381Y-74654761D01*
X79352381Y-74892857D01*
X79304762Y-74988095D01*
X79209524Y-75035714D01*
X79114286Y-75035714D01*
X79019048Y-74988095D01*
X78971429Y-74892857D01*
X78971429Y-74654761D01*
X78923810Y-74559523D01*
X79352381Y-74083333D02*
X78685714Y-74083333D01*
X78352381Y-74083333D02*
X78400000Y-74130952D01*
X78447619Y-74083333D01*
X78400000Y-74035714D01*
X78352381Y-74083333D01*
X78447619Y-74083333D01*
X78685714Y-73178571D02*
X79495238Y-73178571D01*
X79590476Y-73226190D01*
X79638095Y-73273809D01*
X79685714Y-73369048D01*
X79685714Y-73511905D01*
X79638095Y-73607143D01*
X79304762Y-73178571D02*
X79352381Y-73273809D01*
X79352381Y-73464286D01*
X79304762Y-73559524D01*
X79257143Y-73607143D01*
X79161905Y-73654762D01*
X78876190Y-73654762D01*
X78780952Y-73607143D01*
X78733333Y-73559524D01*
X78685714Y-73464286D01*
X78685714Y-73273809D01*
X78733333Y-73178571D01*
X79352381Y-72702381D02*
X78352381Y-72702381D01*
X79352381Y-72273809D02*
X78828571Y-72273809D01*
X78733333Y-72321428D01*
X78685714Y-72416666D01*
X78685714Y-72559524D01*
X78733333Y-72654762D01*
X78780952Y-72702381D01*
X78685714Y-71940476D02*
X78685714Y-71559524D01*
X78352381Y-71797619D02*
X79209524Y-71797619D01*
X79304762Y-71750000D01*
X79352381Y-71654762D01*
X79352381Y-71559524D01*
X79447619Y-71464285D02*
X79447619Y-70702380D01*
X79352381Y-69940475D02*
X79352381Y-70511904D01*
X79352381Y-70226190D02*
X78352381Y-70226190D01*
X78495238Y-70321428D01*
X78590476Y-70416666D01*
X78638095Y-70511904D01*
X79352381Y-69607142D02*
X78685714Y-69083332D01*
X78685714Y-69607142D02*
X79352381Y-69083332D01*
X79352381Y-68178570D02*
X79352381Y-68749999D01*
X79352381Y-68464285D02*
X78352381Y-68464285D01*
X78495238Y-68559523D01*
X78590476Y-68654761D01*
X78638095Y-68749999D01*
X78352381Y-67559523D02*
X78352381Y-67464284D01*
X78400000Y-67369046D01*
X78447619Y-67321427D01*
X78542857Y-67273808D01*
X78733333Y-67226189D01*
X78971429Y-67226189D01*
X79161905Y-67273808D01*
X79257143Y-67321427D01*
X79304762Y-67369046D01*
X79352381Y-67464284D01*
X79352381Y-67559523D01*
X79304762Y-67654761D01*
X79257143Y-67702380D01*
X79161905Y-67749999D01*
X78971429Y-67797618D01*
X78733333Y-67797618D01*
X78542857Y-67749999D01*
X78447619Y-67702380D01*
X78400000Y-67654761D01*
X78352381Y-67559523D01*
X70268572Y-132782381D02*
X69935238Y-132306190D01*
X69697143Y-132782381D02*
X69697143Y-131782381D01*
X70078096Y-131782381D01*
X70173334Y-131830000D01*
X70220953Y-131877619D01*
X70268572Y-131972857D01*
X70268572Y-132115714D01*
X70220953Y-132210952D01*
X70173334Y-132258571D01*
X70078096Y-132306190D01*
X69697143Y-132306190D01*
X70697143Y-132782381D02*
X70697143Y-131782381D01*
X71078096Y-131782381D01*
X71173334Y-131830000D01*
X71220953Y-131877619D01*
X71268572Y-131972857D01*
X71268572Y-132115714D01*
X71220953Y-132210952D01*
X71173334Y-132258571D01*
X71078096Y-132306190D01*
X70697143Y-132306190D01*
X71697143Y-132782381D02*
X71697143Y-132115714D01*
X71697143Y-131782381D02*
X71649524Y-131830000D01*
X71697143Y-131877619D01*
X71744762Y-131830000D01*
X71697143Y-131782381D01*
X71697143Y-131877619D01*
X71935238Y-132877619D02*
X72697143Y-132877619D01*
X73459048Y-131830000D02*
X73363810Y-131782381D01*
X73220953Y-131782381D01*
X73078095Y-131830000D01*
X72982857Y-131925238D01*
X72935238Y-132020476D01*
X72887619Y-132210952D01*
X72887619Y-132353810D01*
X72935238Y-132544286D01*
X72982857Y-132639524D01*
X73078095Y-132734762D01*
X73220953Y-132782381D01*
X73316191Y-132782381D01*
X73459048Y-132734762D01*
X73506667Y-132687143D01*
X73506667Y-132353810D01*
X73316191Y-132353810D01*
X73935238Y-132782381D02*
X73935238Y-131782381D01*
X74316191Y-131782381D01*
X74411429Y-131830000D01*
X74459048Y-131877619D01*
X74506667Y-131972857D01*
X74506667Y-132115714D01*
X74459048Y-132210952D01*
X74411429Y-132258571D01*
X74316191Y-132306190D01*
X73935238Y-132306190D01*
X74935238Y-132782381D02*
X74935238Y-131782381D01*
X75601904Y-131782381D02*
X75792381Y-131782381D01*
X75887619Y-131830000D01*
X75982857Y-131925238D01*
X76030476Y-132115714D01*
X76030476Y-132449048D01*
X75982857Y-132639524D01*
X75887619Y-132734762D01*
X75792381Y-132782381D01*
X75601904Y-132782381D01*
X75506666Y-132734762D01*
X75411428Y-132639524D01*
X75363809Y-132449048D01*
X75363809Y-132115714D01*
X75411428Y-131925238D01*
X75506666Y-131830000D01*
X75601904Y-131782381D01*
X103015953Y-128348571D02*
X103158810Y-128396190D01*
X103206429Y-128443810D01*
X103254048Y-128539048D01*
X103254048Y-128681905D01*
X103206429Y-128777143D01*
X103158810Y-128824762D01*
X103063572Y-128872381D01*
X102682619Y-128872381D01*
X102682619Y-127872381D01*
X103015953Y-127872381D01*
X103111191Y-127920000D01*
X103158810Y-127967619D01*
X103206429Y-128062857D01*
X103206429Y-128158095D01*
X103158810Y-128253333D01*
X103111191Y-128300952D01*
X103015953Y-128348571D01*
X102682619Y-128348571D01*
X103635000Y-128586667D02*
X104111191Y-128586667D01*
X103539762Y-128872381D02*
X103873095Y-127872381D01*
X104206429Y-128872381D01*
X104396905Y-127872381D02*
X104968334Y-127872381D01*
X104682619Y-128872381D02*
X104682619Y-127872381D01*
X105158810Y-127872381D02*
X105730239Y-127872381D01*
X105444524Y-128872381D02*
X105444524Y-127872381D01*
X104427931Y-123959383D02*
X104427931Y-124292717D01*
X104951741Y-124292717D02*
X103951741Y-124292717D01*
X103951741Y-123816526D01*
X103951741Y-123435574D02*
X104761265Y-123435574D01*
X104856503Y-123387955D01*
X104904122Y-123340336D01*
X104951741Y-123245098D01*
X104951741Y-123054621D01*
X104904122Y-122959383D01*
X104856503Y-122911764D01*
X104761265Y-122864145D01*
X103951741Y-122864145D01*
X104904122Y-122435574D02*
X104951741Y-122292717D01*
X104951741Y-122054621D01*
X104904122Y-121959383D01*
X104856503Y-121911764D01*
X104761265Y-121864145D01*
X104666027Y-121864145D01*
X104570789Y-121911764D01*
X104523170Y-121959383D01*
X104475550Y-122054621D01*
X104427931Y-122245098D01*
X104380312Y-122340336D01*
X104332693Y-122387955D01*
X104237455Y-122435574D01*
X104142217Y-122435574D01*
X104046979Y-122387955D01*
X103999360Y-122340336D01*
X103951741Y-122245098D01*
X103951741Y-122007002D01*
X103999360Y-121864145D01*
X104427931Y-121435574D02*
X104427931Y-121102240D01*
X104951741Y-120959383D02*
X104951741Y-121435574D01*
X103951741Y-121435574D01*
X103951741Y-120959383D01*
X92285714Y-128872381D02*
X92285714Y-127872381D01*
X92619048Y-128586667D01*
X92952381Y-127872381D01*
X92952381Y-128872381D01*
X93619047Y-127872381D02*
X93714286Y-127872381D01*
X93809524Y-127920000D01*
X93857143Y-127967619D01*
X93904762Y-128062857D01*
X93952381Y-128253333D01*
X93952381Y-128491429D01*
X93904762Y-128681905D01*
X93857143Y-128777143D01*
X93809524Y-128824762D01*
X93714286Y-128872381D01*
X93619047Y-128872381D01*
X93523809Y-128824762D01*
X93476190Y-128777143D01*
X93428571Y-128681905D01*
X93380952Y-128491429D01*
X93380952Y-128253333D01*
X93428571Y-128062857D01*
X93476190Y-127967619D01*
X93523809Y-127920000D01*
X93619047Y-127872381D01*
X94333333Y-127967619D02*
X94380952Y-127920000D01*
X94476190Y-127872381D01*
X94714286Y-127872381D01*
X94809524Y-127920000D01*
X94857143Y-127967619D01*
X94904762Y-128062857D01*
X94904762Y-128158095D01*
X94857143Y-128300952D01*
X94285714Y-128872381D01*
X94904762Y-128872381D01*
X95238095Y-127872381D02*
X95904762Y-128872381D01*
X95904762Y-127872381D02*
X95238095Y-128872381D01*
X96476190Y-127872381D02*
X96571429Y-127872381D01*
X96666667Y-127920000D01*
X96714286Y-127967619D01*
X96761905Y-128062857D01*
X96809524Y-128253333D01*
X96809524Y-128491429D01*
X96761905Y-128681905D01*
X96714286Y-128777143D01*
X96666667Y-128824762D01*
X96571429Y-128872381D01*
X96476190Y-128872381D01*
X96380952Y-128824762D01*
X96333333Y-128777143D01*
X96285714Y-128681905D01*
X96238095Y-128491429D01*
X96238095Y-128253333D01*
X96285714Y-128062857D01*
X96333333Y-127967619D01*
X96380952Y-127920000D01*
X96476190Y-127872381D01*
X97190476Y-127967619D02*
X97238095Y-127920000D01*
X97333333Y-127872381D01*
X97571429Y-127872381D01*
X97666667Y-127920000D01*
X97714286Y-127967619D01*
X97761905Y-128062857D01*
X97761905Y-128158095D01*
X97714286Y-128300952D01*
X97142857Y-128872381D01*
X97761905Y-128872381D01*
X83119048Y-123497619D02*
X83023810Y-123450000D01*
X82928572Y-123354762D01*
X82785715Y-123211905D01*
X82690476Y-123164286D01*
X82595238Y-123164286D01*
X82642857Y-123402381D02*
X82547619Y-123354762D01*
X82452381Y-123259524D01*
X82404762Y-123069048D01*
X82404762Y-122735714D01*
X82452381Y-122545238D01*
X82547619Y-122450000D01*
X82642857Y-122402381D01*
X82833334Y-122402381D01*
X82928572Y-122450000D01*
X83023810Y-122545238D01*
X83071429Y-122735714D01*
X83071429Y-123069048D01*
X83023810Y-123259524D01*
X82928572Y-123354762D01*
X82833334Y-123402381D01*
X82642857Y-123402381D01*
X83261905Y-123497619D02*
X84023810Y-123497619D01*
X84261905Y-123402381D02*
X84261905Y-122402381D01*
X84833334Y-123402381D01*
X84833334Y-122402381D01*
X85309524Y-123402381D02*
X85309524Y-122402381D01*
X85690477Y-122402381D01*
X85785715Y-122450000D01*
X85833334Y-122497619D01*
X85880953Y-122592857D01*
X85880953Y-122735714D01*
X85833334Y-122830952D01*
X85785715Y-122878571D01*
X85690477Y-122926190D01*
X85309524Y-122926190D01*
X86309524Y-123402381D02*
X86309524Y-122402381D01*
X86880953Y-123402381D01*
X86880953Y-122402381D01*
X87119048Y-123497619D02*
X87880953Y-123497619D01*
X88452382Y-122878571D02*
X88595239Y-122926190D01*
X88642858Y-122973810D01*
X88690477Y-123069048D01*
X88690477Y-123211905D01*
X88642858Y-123307143D01*
X88595239Y-123354762D01*
X88500001Y-123402381D01*
X88119048Y-123402381D01*
X88119048Y-122402381D01*
X88452382Y-122402381D01*
X88547620Y-122450000D01*
X88595239Y-122497619D01*
X88642858Y-122592857D01*
X88642858Y-122688095D01*
X88595239Y-122783333D01*
X88547620Y-122830952D01*
X88452382Y-122878571D01*
X88119048Y-122878571D01*
X89690477Y-123307143D02*
X89642858Y-123354762D01*
X89500001Y-123402381D01*
X89404763Y-123402381D01*
X89261905Y-123354762D01*
X89166667Y-123259524D01*
X89119048Y-123164286D01*
X89071429Y-122973810D01*
X89071429Y-122830952D01*
X89119048Y-122640476D01*
X89166667Y-122545238D01*
X89261905Y-122450000D01*
X89404763Y-122402381D01*
X89500001Y-122402381D01*
X89642858Y-122450000D01*
X89690477Y-122497619D01*
X90119048Y-122878571D02*
X90452382Y-122878571D01*
X90595239Y-123402381D02*
X90119048Y-123402381D01*
X90119048Y-122402381D01*
X90595239Y-122402381D01*
X73000000Y-121686762D02*
X73142857Y-121734381D01*
X73380953Y-121734381D01*
X73476191Y-121686762D01*
X73523810Y-121639143D01*
X73571429Y-121543905D01*
X73571429Y-121448667D01*
X73523810Y-121353429D01*
X73476191Y-121305810D01*
X73380953Y-121258190D01*
X73190476Y-121210571D01*
X73095238Y-121162952D01*
X73047619Y-121115333D01*
X73000000Y-121020095D01*
X73000000Y-120924857D01*
X73047619Y-120829619D01*
X73095238Y-120782000D01*
X73190476Y-120734381D01*
X73428572Y-120734381D01*
X73571429Y-120782000D01*
X74000000Y-121734381D02*
X74000000Y-120734381D01*
X74380953Y-120734381D01*
X74476191Y-120782000D01*
X74523810Y-120829619D01*
X74571429Y-120924857D01*
X74571429Y-121067714D01*
X74523810Y-121162952D01*
X74476191Y-121210571D01*
X74380953Y-121258190D01*
X74000000Y-121258190D01*
X74904762Y-120734381D02*
X75571429Y-121734381D01*
X75571429Y-120734381D02*
X74904762Y-121734381D01*
X75904762Y-120829619D02*
X75952381Y-120782000D01*
X76047619Y-120734381D01*
X76285715Y-120734381D01*
X76380953Y-120782000D01*
X76428572Y-120829619D01*
X76476191Y-120924857D01*
X76476191Y-121020095D01*
X76428572Y-121162952D01*
X75857143Y-121734381D01*
X76476191Y-121734381D01*
X76952381Y-121734381D02*
X77142857Y-121734381D01*
X77238096Y-121686762D01*
X77285715Y-121639143D01*
X77380953Y-121496286D01*
X77428572Y-121305810D01*
X77428572Y-120924857D01*
X77380953Y-120829619D01*
X77333334Y-120782000D01*
X77238096Y-120734381D01*
X77047619Y-120734381D01*
X76952381Y-120782000D01*
X76904762Y-120829619D01*
X76857143Y-120924857D01*
X76857143Y-121162952D01*
X76904762Y-121258190D01*
X76952381Y-121305810D01*
X77047619Y-121353429D01*
X77238096Y-121353429D01*
X77333334Y-121305810D01*
X77380953Y-121258190D01*
X77428572Y-121162952D01*
X77809524Y-120829619D02*
X77857143Y-120782000D01*
X77952381Y-120734381D01*
X78190477Y-120734381D01*
X78285715Y-120782000D01*
X78333334Y-120829619D01*
X78380953Y-120924857D01*
X78380953Y-121020095D01*
X78333334Y-121162952D01*
X77761905Y-121734381D01*
X78380953Y-121734381D01*
X79000000Y-120734381D02*
X79095239Y-120734381D01*
X79190477Y-120782000D01*
X79238096Y-120829619D01*
X79285715Y-120924857D01*
X79333334Y-121115333D01*
X79333334Y-121353429D01*
X79285715Y-121543905D01*
X79238096Y-121639143D01*
X79190477Y-121686762D01*
X79095239Y-121734381D01*
X79000000Y-121734381D01*
X78904762Y-121686762D01*
X78857143Y-121639143D01*
X78809524Y-121543905D01*
X78761905Y-121353429D01*
X78761905Y-121115333D01*
X78809524Y-120924857D01*
X78857143Y-120829619D01*
X78904762Y-120782000D01*
X79000000Y-120734381D01*
X79761905Y-120734381D02*
X79761905Y-121543905D01*
X79809524Y-121639143D01*
X79857143Y-121686762D01*
X79952381Y-121734381D01*
X80142858Y-121734381D01*
X80238096Y-121686762D01*
X80285715Y-121639143D01*
X80333334Y-121543905D01*
X80333334Y-120734381D01*
X80809524Y-121353429D02*
X81571429Y-121353429D01*
X82523810Y-120734381D02*
X82047619Y-120734381D01*
X82000000Y-121210571D01*
X82047619Y-121162952D01*
X82142857Y-121115333D01*
X82380953Y-121115333D01*
X82476191Y-121162952D01*
X82523810Y-121210571D01*
X82571429Y-121305810D01*
X82571429Y-121543905D01*
X82523810Y-121639143D01*
X82476191Y-121686762D01*
X82380953Y-121734381D01*
X82142857Y-121734381D01*
X82047619Y-121686762D01*
X82000000Y-121639143D01*
X83000000Y-121639143D02*
X83047619Y-121686762D01*
X83000000Y-121734381D01*
X82952381Y-121686762D01*
X83000000Y-121639143D01*
X83000000Y-121734381D01*
X83666666Y-120734381D02*
X83761905Y-120734381D01*
X83857143Y-120782000D01*
X83904762Y-120829619D01*
X83952381Y-120924857D01*
X84000000Y-121115333D01*
X84000000Y-121353429D01*
X83952381Y-121543905D01*
X83904762Y-121639143D01*
X83857143Y-121686762D01*
X83761905Y-121734381D01*
X83666666Y-121734381D01*
X83571428Y-121686762D01*
X83523809Y-121639143D01*
X83476190Y-121543905D01*
X83428571Y-121353429D01*
X83428571Y-121115333D01*
X83476190Y-120924857D01*
X83523809Y-120829619D01*
X83571428Y-120782000D01*
X83666666Y-120734381D01*
M02*
